<svg class="svg-icon" style="width: 1.5em; height: 1.5em;vertical-align: middle;fill: currentColor;overflow: hidden;" viewBox="0 0 1024 1024" version="1.1" xmlns="http://www.w3.org/2000/svg"><path d="M512 512m-128 0a128 128 0 1 0 256 0 128 128 0 1 0-256 0Z"  /><path d="M512.031037 512.036832m-10.784644 191.696874a192 192 0 1 0 21.569289-383.393747 192 192 0 1 0-21.569289 383.393747Z"  /><path d="M828.78 195.22l-45.25 45.25a383.62 383.62 0 0 1 0 543.06l45.25 45.25a448 448 0 0 0 0-633.57zM331 331l-45.26-45.25a320 320 0 0 0 0 452.55L331 693a255.73 255.73 0 0 1 0-362z m407.29-45.26L693 331a255.73 255.73 0 0 1 0 362l45.26 45.26a320 320 0 0 0 0-452.55zM158.15 661.45a383.62 383.62 0 0 1 82.32-421l-45.25-45.25a448 448 0 0 0 0 633.57l45.25-45.25a382.8 382.8 0 0 1-82.32-122.07z"  /></svg>