<svg class="svg-icon" style="width: 1em;height: 1em;vertical-align: middle;fill: currentColor;overflow: hidden;" viewBox="0 0 1024 1024" version="1.1" xmlns="http://www.w3.org/2000/svg"><path d="M573.376 153.312L114.24 614.496l304.768 294.144 487.68-242.944L573.408 153.28z" fill="#FFFFFF" /><path d="M576 128l353.888 544L416 928 91.424 614.72 576 128z m-5.28 50.624L137.024 614.272l284.896 275.008 461.536-229.888-312.736-480.768z" fill="#5D6D7E" /><path d="M512 576m-80 0a80 80 0 1 0 160 0 80 80 0 1 0-160 0Z" fill="#FCE8D2" /><path d="M512 480a96 96 0 1 1 0 192 96 96 0 0 1 0-192z m0 32a64 64 0 1 0 0 128 64 64 0 0 0 0-128z" fill="#C49F74" /><path d="M416 832a64 64 0 1 1 0 128 64 64 0 0 1 0-128z m480-224a64 64 0 1 1 0 128 64 64 0 0 1 0-128zM128 544a64 64 0 1 1 0 128 64 64 0 0 1 0-128zM576 96a64 64 0 1 1 0 128 64 64 0 0 1 0-128z" fill="#FFFFFF" /><path d="M416 832a64 64 0 0 1 4.8 127.84L416 960a64 64 0 0 1-4.8-127.84L416 832z m0 32a32 32 0 1 0 0 64 32 32 0 0 0 0-64z m480-256a64 64 0 0 1 4.8 127.84L896 736a64 64 0 0 1-4.8-127.84L896 608z m0 32a32 32 0 1 0 0 64 32 32 0 0 0 0-64zM128 544a64 64 0 0 1 4.8 127.84L128 672a64 64 0 0 1-4.8-127.84L128 544z m0 32a32 32 0 1 0 0 64 32 32 0 0 0 0-64zM576 96a64 64 0 0 1 4.8 127.84L576 224a64 64 0 0 1-4.8-127.84L576 96z m0 32a32 32 0 1 0 0 64 32 32 0 0 0 0-64z" fill="#95A1AF" /></svg>