<svg class="svg-icon" style="width: 1em;height: 1em;vertical-align: middle;fill: currentColor;overflow: hidden;" viewBox="0 0 1024 1024" version="1.1" xmlns="http://www.w3.org/2000/svg"><path d="M198.656 746.666667c-155.008-172.736-150.997333-442.538667 12.074667-610.261334L149.546667 76.928c-199.402667 205.077333-199.402667 537.088 0 742.144l12.565333 12.928H861.866667l12.586666-12.928c199.381333-205.056 199.381333-537.066667 0-742.144l-61.205333 59.477333c163.072 167.722667 167.082667 437.525333 12.074667 610.261334H198.656z" fill="#0A0A0A" /><path d="M469.333333 512V170.666667h85.333334v341.333333h-85.333334zM469.333333 640v-85.333333h85.333334v85.333333h-85.333334zM213.333333 917.333333v-85.333333h85.333334v85.333333h-85.333334zM554.666667 917.333333v-85.333333h85.333333v85.333333h-85.333333zM384 917.333333v-85.333333h85.333333v85.333333h-85.333333zM725.333333 917.333333v-85.333333h85.333334v85.333333h-85.333334z" fill="#0A0A0A" /></svg>