<svg width="700" height="670" viewBox="0 0 700 670" fill="none" xmlns="http://www.w3.org/2000/svg">
<circle cx="335" cy="335" r="334" stroke="#DDDDDD" stroke-width="2" stroke-dasharray="8 8"/>
<circle cx="335" cy="335" r="299" stroke="#DDDDDD" stroke-width="2" stroke-dasharray="8 8"/>
<circle cx="335" cy="335" r="264" stroke="#DDDDDD" stroke-width="2" stroke-dasharray="8 8"/>
<circle cx="335" cy="335" r="229" stroke="#DDDDDD" stroke-width="2" stroke-dasharray="8 8"/>
<circle cx="335" cy="335" r="194" stroke="#DDDDDD" stroke-width="2" stroke-dasharray="8 8"/>
<path d="M319 70.7489C315.527 67.7861 312.307 64.5381 309.375 61.0387C304.975 55.7834 299.75 47.9569 299.75 40.4989C299.748 36.6901 300.876 32.9662 302.991 29.7987C305.107 26.6312 308.114 24.1624 311.633 22.7048C315.152 21.2471 319.024 20.8661 322.76 21.61C326.495 22.3538 329.926 24.1892 332.618 26.8837C334.41 28.668 335.831 30.7901 336.798 33.1272C337.764 35.4642 338.258 37.9698 338.25 40.4989C338.25 47.9569 333.025 55.7834 328.625 61.0387C325.693 64.5381 322.473 67.7861 319 70.7489ZM319 32.2489C316.812 32.2489 314.714 33.1181 313.166 34.6653C311.619 36.2125 310.75 38.3109 310.75 40.4989C310.75 42.6869 311.619 44.7854 313.166 46.3325C314.714 47.8797 316.812 48.7489 319 48.7489C321.188 48.7489 323.286 47.8797 324.834 46.3325C326.381 44.7854 327.25 42.6869 327.25 40.4989C327.25 38.3109 326.381 36.2125 324.834 34.6653C323.286 33.1181 321.188 32.2489 319 32.2489Z" fill="#033CD3"/>
<path d="M242 163.749C238.527 160.786 235.307 157.538 232.375 154.039C227.975 148.783 222.75 140.957 222.75 133.499C222.748 129.69 223.876 125.966 225.991 122.799C228.107 119.631 231.114 117.162 234.633 115.705C238.152 114.247 242.024 113.866 245.76 114.61C249.495 115.354 252.926 117.189 255.618 119.884C257.41 121.668 258.831 123.79 259.798 126.127C260.764 128.464 261.258 130.97 261.25 133.499C261.25 140.957 256.025 148.783 251.625 154.039C248.693 157.538 245.473 160.786 242 163.749ZM242 125.249C239.812 125.249 237.714 126.118 236.166 127.665C234.619 129.212 233.75 131.311 233.75 133.499C233.75 135.687 234.619 137.785 236.166 139.333C237.714 140.88 239.812 141.749 242 141.749C244.188 141.749 246.286 140.88 247.834 139.333C249.381 137.785 250.25 135.687 250.25 133.499C250.25 131.311 249.381 129.212 247.834 127.665C246.286 126.118 244.188 125.249 242 125.249Z" fill="#033CD3"/>
<path d="M335 563.749C331.527 560.786 328.307 557.538 325.375 554.039C320.975 548.783 315.75 540.957 315.75 533.499C315.748 529.69 316.876 525.966 318.991 522.799C321.107 519.631 324.114 517.162 327.633 515.705C331.152 514.247 335.024 513.866 338.76 514.61C342.495 515.354 345.926 517.189 348.618 519.884C350.41 521.668 351.831 523.79 352.798 526.127C353.764 528.464 354.258 530.97 354.25 533.499C354.25 540.957 349.025 548.783 344.625 554.039C341.693 557.538 338.473 560.786 335 563.749ZM335 525.249C332.812 525.249 330.714 526.118 329.166 527.665C327.619 529.212 326.75 531.311 326.75 533.499C326.75 535.687 327.619 537.785 329.166 539.333C330.714 540.88 332.812 541.749 335 541.749C337.188 541.749 339.286 540.88 340.834 539.333C342.381 537.785 343.25 535.687 343.25 533.499C343.25 531.311 342.381 529.212 340.834 527.665C339.286 526.118 337.188 525.249 335 525.249Z" fill="#033CD3"/>
<path d="M333 413.749C321.948 404.322 311.704 393.988 302.375 382.853C288.375 366.132 271.75 341.229 271.75 317.499C271.744 305.38 275.333 293.532 282.064 283.453C288.794 273.375 298.363 265.52 309.559 260.882C320.756 256.244 333.077 255.031 344.962 257.398C356.848 259.765 367.764 265.605 376.33 274.178C382.033 279.856 386.553 286.608 389.629 294.044C392.705 301.48 394.276 309.452 394.25 317.499C394.25 341.229 377.625 366.132 363.625 382.853C354.296 393.988 344.052 404.322 333 413.749ZM333 291.249C326.038 291.249 319.361 294.015 314.438 298.938C309.516 303.861 306.75 310.538 306.75 317.499C306.75 324.461 309.516 331.138 314.438 336.061C319.361 340.984 326.038 343.749 333 343.749C339.962 343.749 346.639 340.984 351.562 336.061C356.484 331.138 359.25 324.461 359.25 317.499C359.25 310.538 356.484 303.861 351.562 298.938C346.639 294.015 339.962 291.249 333 291.249Z" fill="#DDDDDD"/>
<path d="M667 366.749C663.527 363.786 660.307 360.538 657.375 357.039C652.975 351.783 647.75 343.957 647.75 336.499C647.748 332.69 648.876 328.966 650.991 325.799C653.107 322.631 656.114 320.162 659.633 318.705C663.152 317.247 667.024 316.866 670.76 317.61C674.495 318.354 677.926 320.189 680.618 322.884C682.41 324.668 683.831 326.79 684.798 329.127C685.764 331.464 686.258 333.97 686.25 336.499C686.25 343.957 681.025 351.783 676.625 357.039C673.693 360.538 670.473 363.786 667 366.749ZM667 328.249C664.812 328.249 662.714 329.118 661.166 330.665C659.619 332.212 658.75 334.311 658.75 336.499C658.75 338.687 659.619 340.785 661.166 342.333C662.714 343.88 664.812 344.749 667 344.749C669.188 344.749 671.286 343.88 672.834 342.333C674.381 340.785 675.25 338.687 675.25 336.499C675.25 334.311 674.381 332.212 672.834 330.665C671.286 329.118 669.188 328.249 667 328.249Z" fill="#033CD3"/>
<path d="M36 335.749C32.5266 332.786 29.307 329.538 26.375 326.039C21.975 320.783 16.75 312.957 16.75 305.499C16.7481 301.69 17.8762 297.966 19.9914 294.799C22.1067 291.631 25.114 289.162 28.6329 287.705C32.1518 286.247 36.0241 285.866 39.7596 286.61C43.4951 287.354 46.926 289.189 49.618 291.884C51.4103 293.668 52.831 295.79 53.7977 298.127C54.7644 300.464 55.2581 302.97 55.25 305.499C55.25 312.957 50.025 320.783 45.625 326.039C42.693 329.538 39.4734 332.786 36 335.749ZM36 297.249C33.812 297.249 31.7135 298.118 30.1664 299.665C28.6192 301.212 27.75 303.311 27.75 305.499C27.75 307.687 28.6192 309.785 30.1664 311.333C31.7135 312.88 33.812 313.749 36 313.749C38.188 313.749 40.2865 312.88 41.8336 311.333C43.3808 309.785 44.25 307.687 44.25 305.499C44.25 303.311 43.3808 301.212 41.8336 299.665C40.2865 298.118 38.188 297.249 36 297.249Z" fill="#033CD3"/>
</svg>
