<svg width="584" height="830" viewBox="0 0 584 830" fill="none" xmlns="http://www.w3.org/2000/svg">
<path d="M180.5 -89.5C131.573 -89.5 91.9102 -49.837 91.9102 -0.910278L180.5 892C180.5 940.925 220.163 980.588 269.09 980.588L651 794C699.925 794 708.388 645.725 708.388 596.8V293.59C708.388 244.663 668.725 205 619.8 205L180.5 -89.5Z" fill="#033CD3"/>
<path d="M425.56 496.092C425.56 502.105 411.709 506.979 394.621 506.979C377.532 506.979 363.681 502.105 363.681 496.092C363.681 490.079 377.532 485.206 394.621 485.206C411.709 485.206 425.56 490.079 425.56 496.092Z" fill="white"/>
<g filter="url(#filter0_d_341_9)">
<path d="M576.747 360.169C576.747 365.002 565.612 368.92 551.876 368.92C538.139 368.92 527.005 365.002 527.005 360.169C527.005 355.336 538.139 351.419 551.876 351.419C565.612 351.419 576.747 355.336 576.747 360.169Z" fill="white"/>
</g>
<g filter="url(#filter1_d_341_9)">
<path d="M581.794 317.557C581.794 321.5 572.708 324.697 561.501 324.697C550.294 324.697 541.208 321.5 541.208 317.557C541.208 313.614 550.294 310.418 561.501 310.418C572.708 310.418 581.794 313.614 581.794 317.557Z" fill="white"/>
</g>
<g filter="url(#filter2_d_341_9)">
<path d="M548.573 281.611C548.573 284.782 541.268 287.352 532.255 287.352C523.244 287.352 515.938 284.782 515.938 281.611C515.938 278.439 523.244 275.87 532.255 275.87C541.268 275.87 548.573 278.439 548.573 281.611Z" fill="white"/>
</g>
<g filter="url(#filter3_d_341_9)">
<path d="M402.347 613.379C402.347 617.937 391.846 621.631 378.891 621.631C365.939 621.631 355.438 617.937 355.438 613.379C355.438 608.822 365.939 605.127 378.891 605.127C391.846 605.127 402.347 608.822 402.347 613.379Z" fill="white"/>
</g>
<g filter="url(#filter4_d_341_9)">
<path d="M392.233 552.34C392.233 556.898 381.732 560.592 368.778 560.592C355.825 560.592 345.324 556.898 345.324 552.34C345.324 547.781 355.825 544.088 368.778 544.088C381.732 544.088 392.233 547.781 392.233 552.34Z" fill="white"/>
</g>
<g filter="url(#filter5_d_341_9)">
<path d="M811.421 677.004C811.27 676.826 811.11 676.653 810.928 676.486C810.777 676.309 810.619 676.134 810.435 675.971C810.286 675.792 810.125 675.619 809.944 675.452C809.791 675.276 809.632 675.103 809.45 674.935C809.299 674.761 809.139 674.586 808.957 674.419C808.806 674.242 808.648 674.069 808.464 673.902C808.313 673.725 808.153 673.552 807.971 673.387C807.82 673.208 807.662 673.034 807.478 672.87C807.329 672.692 807.169 672.519 806.985 672.351C806.834 672.175 806.675 672.002 806.493 671.835C806.342 671.658 806.182 671.485 806 671.318C805.849 671.141 805.691 670.968 805.507 670.803C805.358 670.625 805.196 670.45 805.014 670.284C804.863 670.108 804.705 669.933 804.523 669.767C804.372 669.591 804.212 669.416 804.03 669.251C803.877 669.074 803.719 668.901 803.537 668.734C803.385 668.557 803.225 668.385 803.043 668.217C802.892 668.041 802.734 667.868 802.55 667.7C802.401 667.524 802.239 667.349 802.057 667.184C801.906 667.007 801.748 666.832 801.566 666.667C801.415 666.49 801.255 666.316 801.073 666.15C800.922 665.974 800.762 665.801 800.58 665.633C800.429 665.455 800.268 665.284 800.086 665.116C799.935 664.94 799.777 664.765 799.593 664.6C799.444 664.423 799.284 664.248 799.1 664.083C798.949 663.906 798.791 663.732 798.609 663.564C798.458 663.39 798.298 663.215 798.116 663.049C797.965 662.871 797.806 662.7 797.623 662.533C797.472 662.354 797.311 662.181 797.13 662.016C796.978 661.839 796.82 661.665 796.636 661.499C796.487 661.322 796.327 661.148 796.143 660.98C795.994 660.806 795.834 660.631 795.652 660.464C795.501 660.287 795.341 660.114 795.159 659.949C795.008 659.77 794.849 659.599 794.666 659.432C794.517 659.254 794.355 659.081 794.173 658.915C794.022 658.737 793.863 658.564 793.681 658.396C793.53 658.222 793.37 658.047 793.186 657.88C793.037 657.705 792.879 657.53 792.695 657.365C792.544 657.186 792.384 657.014 792.202 656.848C792.051 656.67 791.893 656.497 791.711 656.331C791.56 656.153 791.399 655.98 791.216 655.813C791.065 655.636 790.906 655.463 790.724 655.296C790.573 655.121 790.413 654.946 790.229 654.779C790.08 654.603 789.922 654.43 789.738 654.262C789.587 654.086 789.427 653.913 789.245 653.747C789.094 653.569 788.936 653.394 788.752 653.23C788.603 653.052 788.442 652.879 788.259 652.712C788.109 652.535 787.949 652.363 787.767 652.195C787.616 652.019 787.456 651.846 787.274 651.678C787.123 651.502 786.965 651.329 786.781 651.162C786.632 650.985 786.472 650.81 786.288 650.647C786.137 650.468 785.979 650.294 785.797 650.128C785.646 649.951 785.486 649.779 785.302 649.611C785.153 649.435 784.994 649.262 784.81 649.094C784.659 648.916 784.499 648.745 784.317 648.578C784.166 648.401 784.008 648.228 783.826 648.061C783.675 647.884 783.515 647.71 783.331 647.544C783.18 647.368 783.022 647.193 782.84 647.027C782.689 646.851 782.529 646.678 782.345 646.511C782.196 646.334 782.037 646.161 781.854 645.994C781.704 645.815 781.542 645.644 781.36 645.477C781.209 645.3 781.051 645.126 780.869 644.96C780.718 644.784 780.558 644.609 780.374 644.442C780.223 644.267 780.065 644.092 779.883 643.927C779.732 643.75 779.572 643.577 779.39 643.41C779.239 643.232 779.08 643.06 778.897 642.893C778.747 642.715 778.587 642.544 778.404 642.376C778.254 642.2 778.094 642.025 777.912 641.859C777.761 641.683 777.601 641.508 777.417 641.343C777.268 641.166 777.11 640.992 776.926 640.826C776.777 640.649 776.615 640.477 776.433 640.309C776.282 640.131 776.123 639.96 775.94 639.792C775.79 639.614 775.63 639.441 775.447 639.276C775.297 639.099 775.137 638.924 774.955 638.757C774.804 638.582 774.644 638.408 774.46 638.24C774.311 638.066 774.153 637.891 773.969 637.725C773.82 637.547 773.658 637.374 773.476 637.208C773.325 637.03 773.167 636.859 772.985 636.692C772.834 636.513 772.673 636.34 772.49 636.175C772.34 635.997 772.18 635.824 771.998 635.656C771.847 635.482 771.687 635.307 771.505 635.14C771.354 634.963 771.196 634.79 771.012 634.625C770.863 634.446 770.703 634.273 770.519 634.108C770.368 633.929 770.21 633.757 770.028 633.591C769.877 633.413 769.716 633.24 769.533 633.072C769.383 632.896 769.223 632.723 769.041 632.556C768.892 632.381 768.73 632.206 768.548 632.039C768.397 631.862 768.239 631.689 768.055 631.522C767.906 631.346 767.746 631.173 767.562 631.007C767.413 630.829 767.254 630.654 767.071 630.49C766.92 630.312 766.76 630.139 766.578 629.972C766.427 629.795 766.268 629.622 766.084 629.455C765.935 629.277 765.773 629.106 765.591 628.938C765.44 628.762 765.282 628.589 765.098 628.421C764.949 628.245 764.789 628.07 764.605 627.906C764.456 627.728 764.296 627.553 764.114 627.388C763.963 627.211 763.803 627.037 763.619 626.871C763.47 626.695 763.311 626.522 763.128 626.354C762.978 626.176 762.818 626.005 762.634 625.837C762.483 625.661 762.325 625.486 762.143 625.321C761.992 625.144 761.832 624.969 761.648 624.804C761.499 624.627 761.341 624.453 761.157 624.287C761.008 624.111 760.846 623.936 760.664 623.77C760.513 623.592 760.354 623.421 760.172 623.254C760.021 623.075 759.861 622.904 759.677 622.737C759.526 622.56 759.368 622.386 759.186 622.22C759.035 622.043 758.875 621.869 758.693 621.701C758.542 621.527 758.384 621.352 758.2 621.186C758.051 621.01 757.891 620.837 757.707 620.67C757.556 620.491 757.397 620.32 757.215 620.153C757.064 619.975 756.904 619.802 756.72 619.636C756.571 619.46 756.413 619.285 756.229 619.117C756.078 618.943 755.918 618.768 755.736 618.603C755.585 618.426 755.427 618.251 755.243 618.086C755.094 617.907 754.934 617.735 754.75 617.569C754.599 617.391 754.44 617.22 754.259 617.052C754.107 616.874 753.947 616.701 753.764 616.535C753.614 616.359 753.456 616.184 753.272 616.017C753.123 615.842 752.961 615.667 752.779 615.5C752.628 615.325 752.47 615.151 752.288 614.985C752.137 614.807 751.977 614.634 751.793 614.468C751.642 614.29 751.484 614.117 751.302 613.952C751.151 613.773 750.99 613.6 750.808 613.433C750.657 613.256 750.499 613.084 750.315 612.916C750.166 612.741 750.004 612.567 749.822 612.399C749.671 612.223 749.513 612.05 749.331 611.884C749.18 611.706 749.02 611.533 748.836 611.368C748.687 611.189 748.527 611.015 748.345 610.851C748.194 610.673 748.034 610.5 747.852 610.332C747.701 610.158 747.542 609.983 747.358 609.815C747.209 609.639 747.049 609.466 746.865 609.299C746.714 609.122 746.556 608.949 746.374 608.782C746.223 608.605 746.063 608.431 745.881 608.267C745.73 608.089 745.572 607.914 745.388 607.748C745.237 607.572 745.077 607.399 744.895 607.232C744.744 607.055 744.585 606.882 744.401 606.715C744.252 606.538 744.092 606.365 743.908 606.198C743.759 606.021 743.599 605.849 743.417 605.681C743.266 605.505 743.106 605.33 742.924 605.166C742.773 604.988 742.615 604.813 742.431 604.648C742.282 604.471 742.12 604.298 741.938 604.131C741.787 603.953 741.628 603.781 741.446 603.614C741.295 603.438 741.135 603.265 740.951 603.097C740.802 602.921 740.644 602.746 740.46 602.582C740.309 602.404 740.149 602.229 739.967 602.062C739.816 601.887 739.658 601.713 739.476 601.547C739.325 601.37 739.165 601.196 738.981 601.03C738.83 600.852 738.671 600.681 738.489 600.513C738.338 600.337 738.178 600.162 737.995 599.997C737.845 599.82 737.687 599.645 737.503 599.48C737.352 599.303 737.192 599.129 737.01 598.963C736.859 598.787 736.701 598.612 736.517 598.446C736.368 598.268 736.208 598.097 736.024 597.929C735.875 597.751 735.714 597.58 735.533 597.413C735.382 597.234 735.221 597.062 735.039 596.896C734.888 596.719 734.73 596.545 734.546 596.377C734.397 596.203 734.237 596.028 734.053 595.862C733.902 595.686 733.744 595.511 733.562 595.344C733.411 595.167 733.251 594.994 733.067 594.829C732.918 594.65 732.759 594.478 732.576 594.312C732.425 594.134 732.264 593.961 732.082 593.793C731.931 593.619 731.773 593.444 731.591 593.277C731.44 593.102 731.28 592.927 731.096 592.76C730.945 592.583 730.787 592.41 730.605 592.245C730.454 592.067 730.294 591.894 730.11 591.728C729.961 591.55 729.802 591.377 729.619 591.211C729.468 591.033 729.307 590.86 729.126 590.693C728.974 590.516 728.816 590.343 728.634 590.176C728.483 590.001 728.323 589.827 728.139 589.659C727.988 589.483 727.83 589.31 727.648 589.142C727.497 588.966 727.337 588.791 727.155 588.627C727.004 588.449 726.845 588.276 726.662 588.109C726.511 587.932 726.352 587.759 726.169 587.592C726.018 587.417 725.859 587.243 725.677 587.075C725.526 586.899 725.366 586.726 725.182 586.558C725.033 586.382 724.873 586.209 724.691 586.042C724.54 585.865 724.38 585.691 724.198 585.527C724.047 585.348 723.889 585.174 723.705 585.008C723.554 584.832 723.395 584.659 723.212 584.491C723.061 584.315 722.902 584.142 722.72 583.975C722.569 583.796 722.409 583.625 722.225 583.458C722.076 583.281 721.916 583.107 721.734 582.943C721.583 582.765 721.423 582.59 721.241 582.422C721.09 582.248 720.932 582.073 720.75 581.907C720.599 581.731 720.438 581.558 720.255 581.391C720.104 581.212 719.945 581.041 719.763 580.874C719.612 580.697 719.452 580.525 719.27 580.357C719.119 580.181 718.959 580.006 718.777 579.84C718.626 579.664 718.468 579.489 718.284 579.322C718.133 579.147 717.975 578.972 717.793 578.807C717.642 578.628 717.482 578.457 717.298 578.29C717.147 578.112 716.988 577.941 716.806 577.773C716.655 577.595 716.495 577.422 716.313 577.256C716.162 577.08 716.002 576.905 715.82 576.738C715.671 576.563 715.511 576.388 715.327 576.223C715.176 576.046 715.018 575.872 714.836 575.706C714.685 575.528 714.525 575.357 714.341 575.189C714.192 575.011 714.032 574.838 713.85 574.673C713.699 574.494 713.538 574.321 713.356 574.156C713.205 573.979 713.045 573.805 712.863 573.637C712.714 573.462 712.554 573.288 712.37 573.122C712.219 572.944 712.061 572.771 711.879 572.604C711.728 572.427 711.568 572.254 711.384 572.089C711.235 571.91 711.075 571.737 710.893 571.572C710.742 571.394 710.581 571.221 710.4 571.053C710.248 570.877 710.088 570.704 709.908 570.536C709.757 570.362 709.597 570.187 709.413 570.02C709.262 569.843 709.104 569.67 708.922 569.505C708.771 569.326 708.611 569.152 708.427 568.988C708.278 568.81 708.118 568.637 707.936 568.469C707.785 568.293 707.625 568.12 707.443 567.953C707.292 567.776 707.131 567.603 706.951 567.436C706.8 567.259 706.64 567.086 706.456 566.919C706.305 566.742 706.147 566.57 705.965 566.402C705.814 566.226 705.654 566.051 705.472 565.887C705.321 565.709 705.161 565.534 704.979 565.369C704.828 565.192 704.668 565.019 704.486 564.852C704.335 564.675 704.174 564.503 703.994 564.335C703.843 564.159 703.683 563.986 703.499 563.818C703.35 563.642 703.19 563.467 703.008 563.302C702.857 563.125 702.697 562.95 702.515 562.785C702.364 562.608 702.204 562.434 702.022 562.268C701.873 562.091 701.711 561.919 701.529 561.751C701.378 561.573 701.218 561.402 701.037 561.234C700.886 561.058 700.726 560.885 700.542 560.718C700.393 560.541 700.233 560.366 700.051 560.203C699.902 560.024 699.74 559.85 699.558 559.684C699.407 559.508 699.247 559.335 699.067 559.167C698.916 558.991 698.756 558.818 698.572 558.651C698.421 558.472 698.261 558.301 698.08 558.134C697.929 557.957 697.769 557.783 697.587 557.617C697.436 557.44 697.276 557.266 697.094 557.098C696.945 556.924 696.783 556.749 696.601 556.582C696.45 556.407 696.29 556.232 696.11 556.067C695.959 555.888 695.799 555.717 695.615 555.55C695.466 555.371 695.305 555.2 695.124 555.033C694.973 554.855 694.812 554.682 694.63 554.516C694.479 554.34 694.319 554.165 694.137 553.998C693.988 553.823 693.828 553.648 693.644 553.483C693.493 553.306 693.333 553.132 693.153 552.966C693.002 552.788 692.842 552.617 692.66 552.449C692.509 552.271 692.349 552.098 692.167 551.932C692.016 551.754 691.855 551.581 691.673 551.414C691.522 551.239 691.362 551.064 691.18 550.897C691.031 550.722 690.871 550.548 690.687 550.38C690.536 550.204 690.376 550.031 690.196 549.865C690.045 549.687 689.885 549.514 689.703 549.348C689.552 549.17 689.392 548.997 689.21 548.832C689.06 548.653 688.898 548.48 688.717 548.313C688.566 548.138 688.405 547.964 688.225 547.796C688.074 547.62 687.914 547.447 687.73 547.28C687.581 547.103 687.421 546.93 687.239 546.765C687.088 546.586 686.928 546.412 686.746 546.248C686.595 546.069 686.435 545.897 686.255 545.729C686.104 545.553 685.943 545.38 685.76 545.212C685.609 545.036 685.448 544.863 685.268 544.696C685.117 544.519 684.957 544.346 684.775 544.179C684.624 544.002 684.464 543.828 684.282 543.662C684.131 543.486 683.971 543.311 683.789 543.145C683.638 542.969 683.478 542.794 683.296 542.628C683.147 542.452 682.986 542.279 682.803 542.112C682.653 541.935 682.492 541.762 682.311 541.595C682.16 541.418 682 541.246 681.818 541.078C681.667 540.902 681.507 540.727 681.325 540.561C681.174 540.385 681.014 540.21 680.832 540.045C680.681 539.868 680.521 539.695 680.341 539.528C680.19 539.351 680.03 539.178 679.846 539.011C679.697 538.833 679.536 538.662 679.354 538.494C679.203 538.318 679.043 538.143 678.861 537.977C678.71 537.801 678.55 537.626 678.37 537.461C678.219 537.284 678.059 537.109 677.875 536.944C677.724 536.767 677.564 536.593 677.384 536.427C677.233 536.249 677.073 536.078 676.889 535.91C676.74 535.732 676.579 535.561 676.397 535.394C676.248 535.217 676.086 535.042 675.904 534.877C675.753 534.7 675.593 534.526 675.411 534.358C675.262 534.183 675.102 534.009 674.918 533.843C674.769 533.667 674.607 533.492 674.427 533.326C674.276 533.148 674.116 532.977 673.934 532.81C673.783 532.631 673.623 532.458 673.441 532.293C673.291 532.115 673.131 531.942 672.947 531.774C672.798 531.6 672.636 531.425 672.456 531.257C672.305 531.083 672.145 530.908 671.961 530.743C671.812 530.564 671.652 530.391 671.47 530.226C671.319 530.047 671.159 529.876 670.977 529.709C670.826 529.531 670.666 529.358 670.484 529.192C670.334 529.014 670.172 528.841 669.991 528.674C669.841 528.499 669.679 528.324 669.499 528.157C669.348 527.982 669.188 527.807 669.004 527.64C668.855 527.464 668.695 527.291 668.513 527.125C668.364 526.947 668.202 526.772 668.02 526.608C667.869 526.43 667.709 526.257 667.529 526.09C667.377 525.913 667.217 525.74 667.034 525.573C666.884 525.398 666.722 525.224 666.542 525.056C666.391 524.88 666.231 524.707 666.049 524.539C665.898 524.363 665.738 524.19 665.556 524.024C665.407 523.846 665.247 523.671 665.063 523.508C664.912 523.329 664.752 523.155 664.572 522.989C664.421 522.812 664.26 522.64 664.077 522.472C663.927 522.296 663.767 522.123 663.585 521.955C663.436 521.779 663.274 521.606 663.092 521.44C662.941 521.262 662.781 521.087 662.599 520.922C662.45 520.745 662.29 520.571 662.106 520.405C661.957 520.229 661.797 520.054 661.615 519.888C661.464 519.712 661.303 519.539 661.122 519.372C660.97 519.195 660.81 519.022 660.628 518.855C660.479 518.678 660.319 518.505 660.135 518.338C659.984 518.161 659.824 517.987 659.642 517.821C659.493 517.645 659.333 517.47 659.149 517.304C659 517.128 658.84 516.955 658.658 516.788C658.507 516.609 658.347 516.438 658.165 516.271C658.014 516.092 657.853 515.921 657.673 515.754C657.522 515.578 657.362 515.403 657.178 515.237C657.027 515.061 656.867 514.886 656.687 514.721C656.536 514.544 656.376 514.369 656.192 514.202C656.043 514.027 655.883 513.853 655.701 513.687C655.552 513.509 655.39 513.338 655.208 513.17C655.057 512.992 654.897 512.819 654.716 512.653C654.565 512.477 654.405 512.302 654.221 512.137C654.072 511.96 653.912 511.785 653.73 511.618C653.579 511.443 653.419 511.269 653.237 511.103C653.086 510.925 652.926 510.752 652.744 510.586C652.595 510.408 652.435 510.237 652.251 510.069C652.1 509.891 651.94 509.718 651.759 509.553C651.608 509.374 651.448 509.202 651.266 509.034C651.115 508.859 650.955 508.685 650.773 508.517C650.622 508.343 650.462 508.168 650.28 508.001C650.129 507.824 649.969 507.651 649.787 507.484C649.636 507.307 649.476 507.133 649.294 506.969C649.143 506.79 648.983 506.618 648.802 506.45C648.651 506.274 648.491 506.101 648.308 505.933C648.158 505.757 647.998 505.584 647.816 505.417C647.665 505.24 647.505 505.067 647.323 504.9C647.172 504.723 647.012 504.55 646.832 504.385C646.681 504.207 646.521 504.032 646.337 503.868C646.186 503.69 646.026 503.517 645.846 503.349C645.695 503.173 645.534 503 645.352 502.833C645.201 502.656 645.041 502.483 644.859 502.316C644.71 502.139 644.548 501.967 644.366 501.799C644.215 501.623 644.055 501.448 643.875 501.282C643.724 501.106 643.564 500.931 643.38 500.766C643.231 500.589 643.071 500.416 642.889 500.249C642.738 500.072 642.577 499.899 642.395 499.732C642.244 499.556 642.084 499.383 641.902 499.215C641.753 499.039 641.593 498.866 641.409 498.698C641.258 498.522 641.098 498.347 640.918 498.182C640.767 498.005 640.607 497.831 640.425 497.665C640.274 497.488 640.114 497.316 639.932 497.148C639.781 496.972 639.621 496.799 639.439 496.631C639.288 496.453 639.127 496.282 638.945 496.115C638.796 495.936 638.636 495.763 638.452 495.598C638.301 495.421 638.141 495.247 637.961 495.081C637.81 494.905 637.65 494.73 637.468 494.564C637.317 494.388 637.157 494.215 636.975 494.047C636.826 493.869 636.664 493.698 636.482 493.531C636.331 493.352 636.17 493.181 635.99 493.014C635.839 492.837 635.679 492.663 635.495 492.497C635.346 492.321 635.186 492.146 635.004 491.98C634.853 491.804 634.693 491.629 634.511 491.462C634.36 491.285 634.2 491.114 634.02 490.947C633.869 490.768 633.708 490.597 633.525 490.43C633.374 490.252 633.214 490.079 633.033 489.913C632.882 489.735 632.722 489.562 632.54 489.395C632.389 489.22 632.229 489.045 632.047 488.878C631.896 488.703 631.736 488.528 631.554 488.363C631.403 488.185 631.243 488.012 631.061 487.846C630.912 487.668 630.752 487.495 630.568 487.329C630.419 487.151 630.257 486.978 630.076 486.812C629.925 486.634 629.765 486.461 629.583 486.294C629.432 486.119 629.272 485.945 629.09 485.777C628.939 485.601 628.779 485.428 628.597 485.26C628.446 485.084 628.286 484.911 628.106 484.745C627.955 484.567 627.795 484.394 627.611 484.229C627.462 484.05 627.302 483.877 627.12 483.71C626.969 483.534 626.808 483.361 626.626 483.193C626.475 483.019 626.315 482.844 626.135 482.676C625.984 482.5 625.824 482.327 625.64 482.16C625.489 481.983 625.329 481.808 625.149 481.645C624.998 481.466 624.838 481.292 624.654 481.126C624.505 480.95 624.345 480.777 624.163 480.609C624.012 480.433 623.851 480.26 623.669 480.093C623.518 479.914 623.358 479.743 623.176 479.576C623.027 479.399 622.867 479.226 622.683 479.061C622.532 478.882 622.372 478.708 622.192 478.544C622.041 478.366 621.881 478.193 621.699 478.025C621.548 477.849 621.388 477.676 621.206 477.509C621.055 477.332 620.896 477.159 620.713 476.992C620.561 476.815 620.401 476.642 620.221 476.475C620.07 476.299 619.91 476.124 619.726 475.958C619.577 475.782 619.417 475.607 619.235 475.44C619.084 475.265 618.924 475.09 618.742 474.925C618.591 474.748 618.431 474.575 618.249 474.408C618.098 474.23 617.938 474.059 617.756 473.891C617.605 473.713 617.444 473.542 617.264 473.374C617.113 473.198 616.953 473.023 616.769 472.858C616.62 472.681 616.46 472.506 616.278 472.341C616.127 472.164 615.967 471.99 615.785 471.824C615.634 471.648 615.474 471.475 615.294 471.307C615.143 471.129 614.982 470.958 614.799 470.79C614.648 470.612 614.488 470.439 614.307 470.274C614.156 470.097 613.996 469.923 613.814 469.755C613.663 469.58 613.503 469.406 613.321 469.24C613.17 469.064 613.01 468.889 612.828 468.723C612.677 468.545 612.517 468.372 612.337 468.207C612.186 468.028 612.026 467.857 611.842 467.69C611.693 467.511 611.531 467.339 611.35 467.173C611.199 466.997 611.039 466.822 610.857 466.654C610.706 466.48 610.546 466.305 610.364 466.138C610.213 465.963 610.053 465.788 609.871 465.623C609.72 465.444 609.56 465.271 609.38 465.106C609.229 464.928 609.069 464.755 608.885 464.589C608.736 464.411 608.575 464.238 608.394 464.071C608.242 463.894 608.082 463.721 607.9 463.554C607.749 463.379 607.589 463.204 607.407 463.037C607.258 462.86 607.096 462.688 606.914 462.52C606.763 462.344 606.603 462.171 606.423 462.005C606.272 461.827 606.112 461.652 605.928 461.488C605.779 461.31 605.619 461.137 605.437 460.97C605.286 460.795 605.125 460.62 604.943 460.453C604.792 460.277 604.632 460.104 604.452 459.936C604.301 459.76 604.141 459.587 603.957 459.419C603.806 459.243 603.646 459.068 603.466 458.905C603.315 458.726 603.155 458.552 602.971 458.386C602.822 458.209 602.662 458.037 602.48 457.869C602.33 457.693 602.168 457.52 601.987 457.352C601.835 457.176 601.675 457.003 601.495 456.836C601.344 456.659 601.184 456.484 601 456.321C600.851 456.142 600.691 455.968 600.509 455.802C600.358 455.626 600.198 455.451 600.016 455.285C599.865 455.109 599.705 454.936 599.523 454.768C599.374 454.59 599.213 454.419 599.03 454.252C598.879 454.075 598.718 453.902 598.538 453.735C598.387 453.558 598.227 453.384 598.045 453.22C597.894 453.042 597.734 452.867 597.552 452.7C597.401 452.525 597.241 452.35 597.059 452.185C596.908 452.008 596.748 451.835 596.568 451.668C596.417 451.489 596.256 451.318 596.073 451.151C595.922 450.973 595.762 450.8 595.581 450.634C595.43 450.458 595.27 450.283 595.086 450.116C594.937 449.941 594.777 449.766 594.595 449.601C594.446 449.424 594.284 449.249 594.102 449.084C593.951 448.906 593.791 448.734 593.611 448.567C593.46 448.389 593.299 448.218 593.116 448.05C592.966 447.872 592.806 447.699 592.624 447.534C592.473 447.357 592.313 447.182 592.129 447.015C591.98 446.838 591.82 446.666 591.638 446.5C591.487 446.323 591.327 446.149 591.145 445.983C590.994 445.805 590.834 445.632 590.652 445.465C590.503 445.288 590.343 445.115 590.159 444.95C590.01 444.771 589.848 444.598 589.667 444.431C589.516 444.255 589.356 444.082 589.174 443.916C589.023 443.738 588.863 443.565 588.681 443.397C588.532 443.221 588.372 443.048 588.188 442.881C588.037 442.704 587.877 442.531 587.697 442.364C587.546 442.187 587.386 442.015 587.204 441.849C587.053 441.671 586.893 441.498 586.711 441.33C586.56 441.154 586.399 440.981 586.217 440.814C586.066 440.637 585.906 440.464 585.726 440.299C585.575 440.12 585.415 439.947 585.231 439.78C585.08 439.603 584.92 439.431 584.74 439.265C584.589 439.087 584.429 438.914 584.247 438.746C584.096 438.57 583.936 438.397 583.754 438.23C583.604 438.053 583.442 437.88 583.26 437.713C583.109 437.536 582.949 437.363 582.769 437.196C582.618 437.02 582.458 436.847 582.274 436.679C582.125 436.503 581.965 436.33 581.783 436.164C581.632 435.986 581.472 435.813 581.29 435.646C581.139 435.469 580.979 435.295 580.797 435.129C580.647 434.952 580.487 434.78 580.304 434.612C580.152 434.436 579.992 434.263 579.812 434.095C579.661 433.919 579.501 433.744 579.319 433.579C579.168 433.402 579.008 433.229 578.826 433.062C578.675 432.885 578.515 432.712 578.333 432.545C578.182 432.369 578.022 432.194 577.84 432.028C577.691 431.852 577.53 431.679 577.347 431.512C577.197 431.335 577.035 431.162 576.855 430.995C576.704 430.818 576.544 430.644 576.362 430.478C576.211 430.301 576.051 430.129 575.869 429.961C575.72 429.785 575.558 429.61 575.376 429.444C575.225 429.266 575.065 429.093 574.885 428.928C574.734 428.751 574.573 428.576 574.39 428.411C574.24 428.234 574.08 428.06 573.898 427.894C573.747 427.716 573.587 427.543 573.405 427.377C573.254 427.201 573.094 427.028 572.914 426.86C572.763 426.684 572.603 426.509 572.419 426.344C572.268 426.165 572.108 425.992 571.928 425.827C571.777 425.65 571.617 425.476 571.433 425.31C571.284 425.134 571.123 424.959 570.941 424.793C570.79 424.615 570.63 424.442 570.448 424.277C570.297 424.1 570.137 423.925 569.955 423.76C569.806 423.581 569.646 423.409 569.462 423.243C569.313 423.065 569.151 422.892 568.971 422.724C568.82 422.548 568.66 422.375 568.478 422.209C568.327 422.031 568.166 421.858 567.985 421.691C567.835 421.514 567.675 421.341 567.491 421.176C567.342 420.999 567.18 420.825 567 420.659C566.849 420.481 566.689 420.308 566.505 420.141C566.356 419.964 566.196 419.791 566.014 419.624C565.863 419.447 565.703 419.274 565.521 419.107C565.37 418.93 565.21 418.758 565.029 418.59C564.878 418.414 564.718 418.241 564.534 418.073C564.385 417.897 564.223 417.724 564.043 417.557C563.892 417.38 563.732 417.207 563.548 417.04C563.399 416.863 563.239 416.69 563.057 416.525C562.908 416.347 562.746 416.174 562.564 416.006C562.413 415.83 562.253 415.657 562.072 415.489C561.921 415.313 561.761 415.14 561.578 414.973C561.428 414.796 561.266 414.623 561.086 414.456C560.935 414.279 560.775 414.105 560.593 413.939C560.442 413.763 560.282 413.588 560.1 413.422C559.951 413.246 559.791 413.073 559.607 412.906C559.458 412.729 559.296 412.554 559.116 412.389C558.965 412.212 558.804 412.039 558.621 411.872C558.471 411.695 558.311 411.523 558.129 411.355C557.978 411.179 557.818 411.004 557.636 410.838C557.485 410.662 557.325 410.487 557.143 410.322C556.994 410.145 556.834 409.97 556.65 409.805C556.501 409.628 556.339 409.454 556.159 409.288C556.008 409.112 555.847 408.937 555.664 408.771C555.514 408.595 555.354 408.42 555.172 408.255C555.023 408.078 554.863 407.903 554.679 407.738C554.528 407.561 554.368 407.388 554.188 407.221C554.037 407.044 553.877 406.87 553.693 406.704C553.544 406.526 553.384 406.353 553.202 406.187C553.051 406.011 552.891 405.836 552.709 405.671C552.557 405.494 552.397 405.319 552.217 405.154C552.066 404.976 551.906 404.803 551.722 404.637C551.571 404.459 551.411 404.286 551.231 404.12C551.08 403.944 550.92 403.769 550.736 403.602C550.587 403.425 550.427 403.252 550.245 403.085C550.094 402.91 549.934 402.736 549.752 402.57C549.601 402.392 549.44 402.219 549.26 402.051C549.109 401.875 548.949 401.702 548.765 401.536C548.616 401.36 548.456 401.185 548.274 401.02C548.123 400.841 547.963 400.668 547.781 400.501C547.63 400.325 547.47 400.152 547.288 399.984C547.139 399.808 546.978 399.635 546.795 399.469C546.644 399.291 546.484 399.118 546.303 398.951C546.152 398.774 545.992 398.601 545.81 398.436C545.659 398.257 545.499 398.085 545.317 397.917C545.166 397.741 545.006 397.568 544.824 397.4C544.673 397.224 544.513 397.051 544.333 396.885C544.182 396.707 544.022 396.534 543.838 396.367C543.687 396.19 543.527 396.017 543.346 395.85C543.195 395.673 543.035 395.501 542.852 395.333C542.702 395.157 542.542 394.984 542.36 394.816C542.211 394.64 542.049 394.465 541.867 394.3C541.716 394.123 541.556 393.95 541.376 393.783C541.225 393.606 541.065 393.434 540.881 393.266C540.732 393.09 540.571 392.917 540.389 392.749C540.238 392.573 540.078 392.4 539.896 392.233C539.745 392.056 539.585 391.883 539.403 391.716C539.254 391.539 539.094 391.365 538.91 391.199C538.759 391.022 538.599 390.85 538.419 390.682C538.268 390.506 538.108 390.333 537.926 390.165C537.775 389.989 537.615 389.814 537.433 389.649C537.282 389.472 537.121 389.299 536.939 389.132C536.788 388.955 536.628 388.781 536.446 388.615C536.297 388.439 536.137 388.264 535.953 388.098C535.804 387.922 535.642 387.747 535.462 387.581C535.311 387.405 535.151 387.23 534.969 387.065C534.818 386.886 534.658 386.714 534.476 386.546C534.325 386.37 534.164 386.197 533.983 386.031C533.831 385.855 533.671 385.68 533.491 385.514C533.34 385.336 533.18 385.163 532.996 384.996C532.845 384.819 532.685 384.646 532.505 384.481C532.354 384.304 532.194 384.13 532.01 383.964C531.861 383.786 531.701 383.613 531.519 383.447C531.369 383.271 531.208 383.096 531.026 382.93C530.875 382.752 530.714 382.579 530.534 382.414C528.413 379.919 523.034 378.4 518.133 379.564L285.298 437.658C279.943 438.93 278.856 442.431 281.562 444.955C281.708 445.132 281.874 445.303 282.054 445.472C282.201 445.648 282.365 445.819 282.547 445.989C282.694 446.165 282.858 446.336 283.04 446.505C283.187 446.682 283.351 446.853 283.533 447.02C283.679 447.199 283.844 447.37 284.026 447.539C284.172 447.716 284.337 447.887 284.517 448.056C284.665 448.23 284.829 448.403 285.011 448.573C285.158 448.749 285.322 448.92 285.504 449.089C285.651 449.266 285.815 449.437 285.997 449.606C286.142 449.783 286.308 449.954 286.49 450.121C286.636 450.299 286.801 450.47 286.981 450.64C287.129 450.816 287.294 450.987 287.474 451.156C287.622 451.333 287.786 451.504 287.968 451.673C288.115 451.85 288.279 452.021 288.461 452.19C288.608 452.367 288.772 452.539 288.954 452.707C289.099 452.883 289.265 453.056 289.447 453.225C289.592 453.4 289.758 453.571 289.938 453.74C290.086 453.917 290.249 454.088 290.431 454.257C290.579 454.435 290.742 454.605 290.924 454.774C291.072 454.95 291.236 455.121 291.418 455.291C291.565 455.467 291.729 455.64 291.911 455.807C292.056 455.984 292.222 456.157 292.402 456.326C292.549 456.501 292.715 456.672 292.895 456.841C293.042 457.018 293.206 457.189 293.388 457.358C293.536 457.536 293.699 457.705 293.881 457.875C294.029 458.053 294.193 458.224 294.375 458.391C294.52 458.568 294.686 458.741 294.868 458.91C295.013 459.085 295.179 459.258 295.359 459.427C295.506 459.601 295.67 459.774 295.852 459.944C295.999 460.12 296.163 460.289 296.345 460.458C296.493 460.637 296.656 460.806 296.838 460.975C296.984 461.154 297.149 461.325 297.331 461.492C297.477 461.669 297.643 461.841 297.823 462.011C297.97 462.185 298.134 462.358 298.316 462.527C298.463 462.702 298.627 462.875 298.809 463.044C298.956 463.221 299.12 463.392 299.302 463.561C299.45 463.738 299.613 463.909 299.795 464.076C299.941 464.254 300.106 464.425 300.288 464.595C300.434 464.771 300.598 464.942 300.78 465.111C300.927 465.286 301.091 465.459 301.273 465.628C301.42 465.805 301.584 465.976 301.766 466.145C301.913 466.321 302.077 466.492 302.259 466.66C302.405 466.838 302.57 467.009 302.752 467.177C302.898 467.355 303.062 467.526 303.243 467.695C303.391 467.87 303.555 468.043 303.737 468.212C303.884 468.389 304.048 468.56 304.23 468.729C304.377 468.905 304.541 469.076 304.723 469.246C304.87 469.422 305.034 469.595 305.214 469.761C305.362 469.939 305.527 470.11 305.707 470.279C305.855 470.456 306.018 470.627 306.2 470.796C306.348 470.971 306.512 471.143 306.694 471.313C306.841 471.491 307.005 471.66 307.187 471.83C307.334 472.006 307.498 472.179 307.68 472.346C307.825 472.523 307.991 472.696 308.171 472.863C308.318 473.04 308.482 473.211 308.664 473.38C308.812 473.556 308.975 473.727 309.157 473.897C309.305 474.075 309.468 474.244 309.65 474.413C309.798 474.592 309.962 474.761 310.144 474.93C310.289 475.107 310.455 475.28 310.635 475.447C310.782 475.623 310.946 475.796 311.128 475.966C311.275 476.14 311.439 476.311 311.621 476.481C311.769 476.657 311.932 476.828 312.114 476.997C312.262 477.176 312.425 477.345 312.607 477.514C312.753 477.692 312.919 477.863 313.101 478.031C313.246 478.207 313.412 478.38 313.592 478.548C313.739 478.724 313.903 478.897 314.085 479.066C314.232 479.241 314.396 479.414 314.578 479.583C314.725 479.76 314.889 479.929 315.071 480.098C315.219 480.276 315.382 480.446 315.564 480.615C315.71 480.793 315.876 480.964 316.056 481.132C316.203 481.308 316.367 481.481 316.549 481.65C316.696 481.825 316.86 481.998 317.042 482.167C317.189 482.342 317.353 482.514 317.535 482.684C317.681 482.86 317.846 483.029 318.028 483.199C318.174 483.377 318.339 483.548 318.521 483.715C318.667 483.894 318.832 484.065 319.013 484.234C319.16 484.409 319.324 484.582 319.506 484.751C319.653 484.926 319.817 485.098 319.999 485.268C320.146 485.444 320.31 485.615 320.492 485.784C320.638 485.961 320.803 486.132 320.985 486.299C321.131 486.478 321.296 486.649 321.476 486.816C321.624 486.994 321.788 487.166 321.97 487.335C322.117 487.511 322.281 487.682 322.463 487.852C322.61 488.026 322.774 488.199 322.956 488.368C323.101 488.545 323.267 488.716 323.449 488.885C323.594 489.062 323.76 489.233 323.94 489.4C324.088 489.578 324.251 489.749 324.433 489.919C324.581 490.095 324.744 490.266 324.926 490.435C325.074 490.612 325.238 490.783 325.42 490.952C325.565 491.129 325.731 491.3 325.913 491.469C326.058 491.646 326.224 491.817 326.406 491.986C326.551 492.162 326.717 492.333 326.897 492.501C327.044 492.679 327.208 492.85 327.39 493.019C327.538 493.196 327.701 493.367 327.883 493.536C328.029 493.713 328.195 493.884 328.377 494.053C328.522 494.229 328.688 494.4 328.87 494.57C329.015 494.746 329.181 494.919 329.361 495.086C329.508 495.263 329.672 495.434 329.854 495.603C330.001 495.78 330.165 495.951 330.347 496.12C330.495 496.297 330.658 496.468 330.84 496.637C330.986 496.815 331.151 496.984 331.333 497.154C331.479 497.33 331.645 497.503 331.825 497.67C331.972 497.847 332.136 498.02 332.318 498.187C332.465 498.364 332.629 498.536 332.811 498.706C332.958 498.88 333.122 499.051 333.304 499.221C333.45 499.399 333.615 499.568 333.797 499.737C333.943 499.916 334.108 500.085 334.29 500.254C334.436 500.431 334.6 500.604 334.782 500.771C334.929 500.948 335.093 501.12 335.275 501.29C335.422 501.464 335.586 501.637 335.768 501.806C335.913 501.981 336.079 502.152 336.261 502.321C336.407 502.5 336.572 502.669 336.754 502.838C336.9 503.017 337.065 503.188 337.247 503.355C337.393 503.533 337.557 503.704 337.739 503.872C337.886 504.048 338.05 504.221 338.232 504.39C338.379 504.565 338.543 504.738 338.725 504.907C338.87 505.084 339.036 505.253 339.218 505.422C339.364 505.6 339.529 505.77 339.711 505.939C339.857 506.117 340.02 506.288 340.202 506.456C340.35 506.634 340.514 506.805 340.696 506.974C340.843 507.149 341.007 507.322 341.189 507.491C341.334 507.666 341.5 507.839 341.682 508.008C341.827 508.184 341.993 508.354 342.175 508.523C342.32 508.701 342.484 508.872 342.668 509.04C342.814 509.218 342.977 509.389 343.159 509.558C343.307 509.735 343.47 509.906 343.652 510.075C343.798 510.25 343.964 510.422 344.146 510.592C344.291 510.768 344.457 510.939 344.639 511.108C344.784 511.285 344.95 511.456 345.132 511.623C345.277 511.802 345.441 511.973 345.623 512.14C345.771 512.319 345.934 512.49 346.116 512.659C346.264 512.835 346.427 513.006 346.609 513.176C346.755 513.35 346.921 513.523 347.103 513.692C347.248 513.869 347.414 514.04 347.596 514.209C347.741 514.386 347.907 514.559 348.089 514.726C348.234 514.902 348.398 515.073 348.58 515.243C348.727 515.419 348.891 515.59 349.073 515.76C349.219 515.936 349.384 516.107 349.566 516.276C349.712 516.453 349.877 516.624 350.059 516.793C350.205 516.97 350.371 517.141 350.553 517.31C350.698 517.486 350.862 517.659 351.044 517.827C351.191 518.003 351.355 518.176 351.537 518.345C351.684 518.52 351.848 518.691 352.03 518.86C352.176 519.037 352.341 519.208 352.523 519.377C352.669 519.555 352.834 519.725 353.016 519.894C353.162 520.07 353.328 520.243 353.51 520.411C353.655 520.587 353.819 520.76 354.001 520.929C354.148 521.104 354.312 521.277 354.494 521.446C354.64 521.621 354.805 521.792 354.987 521.961C355.133 522.139 355.298 522.308 355.48 522.478C355.626 522.656 355.791 522.827 355.972 522.994C356.119 523.171 356.283 523.344 356.465 523.511C356.612 523.688 356.776 523.861 356.958 524.03C357.105 524.205 357.269 524.377 357.451 524.545C357.596 524.721 357.762 524.892 357.944 525.063C358.09 525.24 358.255 525.409 358.435 525.578C358.583 525.757 358.748 525.928 358.928 526.095C359.076 526.273 359.24 526.445 359.422 526.614C359.569 526.788 359.733 526.961 359.915 527.131C360.06 527.305 360.226 527.478 360.408 527.647C360.553 527.824 360.719 527.993 360.901 528.164C361.047 528.341 361.212 528.512 361.394 528.679C361.54 528.857 361.703 529.028 361.885 529.196C362.033 529.372 362.197 529.545 362.378 529.714C362.524 529.889 362.69 530.062 362.872 530.231C363.017 530.408 363.183 530.579 363.365 530.748C363.51 530.924 363.676 531.096 363.856 531.265C364.003 531.441 364.169 531.614 364.349 531.782C364.497 531.958 364.66 532.129 364.842 532.298C364.988 532.475 365.153 532.646 365.335 532.815C365.481 532.99 365.647 533.163 365.829 533.332C365.974 533.508 366.14 533.679 366.322 533.849C366.467 534.025 366.633 534.198 366.813 534.365C366.96 534.542 367.124 534.713 367.306 534.882C367.454 535.059 367.617 535.23 367.799 535.399C367.945 535.576 368.11 535.747 368.292 535.916C368.438 536.092 368.604 536.263 368.785 536.433C368.931 536.609 369.097 536.78 369.277 536.949C369.424 537.126 369.588 537.299 369.77 537.466C369.917 537.643 370.081 537.814 370.263 537.983C370.41 538.159 370.574 538.33 370.756 538.502C370.902 538.676 371.067 538.847 371.249 539.016C371.395 539.195 371.56 539.364 371.742 539.533C371.888 539.712 372.054 539.883 372.234 540.05C372.381 540.227 372.545 540.399 372.727 540.569C372.874 540.743 373.038 540.916 373.22 541.085C373.367 541.26 373.531 541.431 373.713 541.6C373.859 541.779 374.024 541.948 374.206 542.117C374.352 542.296 374.517 542.465 374.698 542.634C374.845 542.81 375.009 542.983 375.191 543.151C375.338 543.327 375.502 543.5 375.684 543.669C375.831 543.844 375.995 544.017 376.177 544.186C376.322 544.361 376.488 544.534 376.67 544.701C376.816 544.879 376.981 545.049 377.161 545.218C377.309 545.396 377.473 545.567 377.654 545.735C377.802 545.913 377.966 546.084 378.148 546.253C378.295 546.428 378.459 546.601 378.641 546.77C378.786 546.945 378.952 547.118 379.134 547.287C379.279 547.463 379.445 547.634 379.627 547.804C379.773 547.98 379.938 548.149 380.118 548.319C380.266 548.497 380.429 548.668 380.611 548.835C380.759 549.014 380.923 549.185 381.105 549.354C381.25 549.529 381.416 549.701 381.598 549.871C381.743 550.045 381.909 550.218 382.091 550.387C382.236 550.564 382.402 550.735 382.582 550.902C382.729 551.081 382.893 551.252 383.075 551.419C383.223 551.598 383.386 551.769 383.568 551.938C383.714 552.112 383.879 552.285 384.061 552.455C384.207 552.629 384.373 552.802 384.553 552.971C384.7 553.148 384.866 553.319 385.046 553.488C385.193 553.665 385.357 553.836 385.539 554.003C385.686 554.181 385.85 554.352 386.032 554.52C386.18 554.698 386.343 554.869 386.525 555.039C386.671 555.215 386.836 555.386 387.017 555.555C387.164 555.732 387.33 555.903 387.51 556.072C387.657 556.249 387.823 556.42 388.003 556.589C388.15 556.765 388.314 556.938 388.496 557.106C388.643 557.282 388.807 557.453 388.989 557.622C389.135 557.799 389.3 557.97 389.482 558.139C389.628 558.316 389.793 558.487 389.974 558.656C390.121 558.832 390.286 559.004 390.467 559.173C390.614 559.349 390.778 559.522 390.96 559.69C391.107 559.866 391.271 560.039 391.453 560.206C391.598 560.383 391.764 560.554 391.946 560.723C392.092 560.9 392.257 561.071 392.437 561.24C392.585 561.418 392.75 561.587 392.93 561.757C393.078 561.935 393.243 562.104 393.424 562.273C393.571 562.45 393.735 562.623 393.917 562.79C394.064 562.967 394.228 563.14 394.41 563.309C394.555 563.484 394.721 563.656 394.903 563.826C395.049 564 395.214 564.171 395.394 564.341C395.542 564.519 395.707 564.688 395.887 564.857C396.035 565.036 396.2 565.207 396.381 565.374C396.528 565.551 396.692 565.723 396.874 565.891C397.019 566.067 397.185 566.24 397.367 566.409C397.512 566.584 397.678 566.757 397.858 566.924C398.005 567.103 398.171 567.272 398.351 567.441C398.499 567.62 398.664 567.789 398.844 567.958C398.992 568.136 399.155 568.307 399.337 568.475C399.485 568.651 399.649 568.824 399.831 568.993C399.976 569.168 400.142 569.341 400.322 569.51C400.469 569.685 400.635 569.858 400.815 570.027C400.962 570.203 401.128 570.373 401.308 570.542C401.455 570.72 401.621 570.891 401.801 571.059C401.949 571.237 402.112 571.408 402.294 571.577C402.44 571.752 402.606 571.925 402.786 572.094C402.933 572.269 403.099 572.442 403.279 572.611C403.426 572.787 403.592 572.958 403.772 573.128C403.919 573.304 404.085 573.475 404.265 573.643C404.412 573.821 404.576 573.992 404.758 574.159C404.906 574.338 405.069 574.509 405.251 574.678C405.397 574.855 405.562 575.026 405.744 575.195C405.89 575.371 406.056 575.542 406.236 575.712C406.383 575.888 406.549 576.059 406.729 576.228C406.876 576.405 407.042 576.578 407.222 576.743C407.369 576.922 407.533 577.093 407.715 577.262C407.861 577.438 408.026 577.609 408.206 577.779C408.354 577.955 408.519 578.126 408.7 578.295C408.847 578.474 409.013 578.643 409.193 578.812C409.34 578.989 409.506 579.16 409.686 579.329C409.833 579.506 409.997 579.678 410.179 579.846C410.326 580.022 410.49 580.193 410.67 580.363C410.818 580.539 410.983 580.71 411.163 580.879C411.311 581.056 411.476 581.227 411.656 581.396C411.804 581.573 411.969 581.744 412.15 581.913C412.297 582.089 412.461 582.262 412.643 582.43C412.79 582.606 412.954 582.779 413.136 582.948C413.281 583.123 413.447 583.296 413.629 583.465C413.775 583.64 413.94 583.811 414.12 583.98C414.268 584.158 414.433 584.328 414.613 584.497C414.761 584.675 414.926 584.846 415.107 585.014C415.254 585.19 415.418 585.363 415.6 585.53C415.745 585.707 415.911 585.88 416.091 586.049C416.238 586.224 416.404 586.397 416.584 586.566C416.731 586.742 416.897 586.911 417.077 587.081C417.225 587.259 417.39 587.428 417.57 587.598C417.718 587.776 417.882 587.947 418.063 588.114C418.209 588.291 418.375 588.464 418.557 588.633C418.702 588.808 418.868 588.98 419.048 589.15C419.195 589.324 419.361 589.497 419.541 589.665C419.688 589.843 419.854 590.012 420.034 590.183C420.182 590.36 420.345 590.531 420.527 590.698C420.673 590.877 420.838 591.048 421.02 591.215C421.166 591.393 421.332 591.564 421.512 591.734C421.659 591.908 421.825 592.081 422.005 592.25C422.152 592.427 422.318 592.598 422.498 592.767C422.645 592.944 422.809 593.113 422.991 593.282C423.137 593.46 423.302 593.631 423.484 593.799C423.63 593.977 423.795 594.148 423.975 594.317C424.123 594.494 424.288 594.665 424.469 594.834C424.616 595.009 424.782 595.182 424.962 595.351C425.109 595.528 425.275 595.699 425.455 595.868C425.602 596.044 425.766 596.215 425.948 596.383C426.094 596.561 426.259 596.732 426.441 596.901C426.587 597.078 426.752 597.249 426.932 597.418C427.08 597.593 427.245 597.766 427.426 597.935C427.573 598.111 427.739 598.283 427.919 598.452C428.066 598.628 428.23 598.799 428.412 598.969C428.557 599.145 428.723 599.318 428.905 599.485C429.05 599.662 429.216 599.833 429.396 600.002C429.544 600.179 429.709 600.35 429.889 600.519C430.037 600.695 430.202 600.866 430.383 601.036C430.53 601.212 430.695 601.383 430.876 601.552C431.021 601.729 431.187 601.902 431.369 602.069C431.514 602.246 431.68 602.419 431.862 602.588C432.007 602.762 432.173 602.934 432.353 603.103C432.501 603.279 432.666 603.45 432.846 603.62C432.994 603.798 433.159 603.967 433.339 604.136C433.487 604.313 433.651 604.484 433.833 604.653C433.978 604.83 434.144 605.002 434.326 605.17C434.471 605.346 434.637 605.519 434.817 605.688C434.964 605.863 435.13 606.036 435.31 606.205C435.458 606.38 435.623 606.551 435.803 606.72C435.951 606.899 436.116 607.068 436.296 607.237C436.442 607.415 436.608 607.586 436.789 607.754C436.935 607.93 437.101 608.103 437.283 608.272C437.428 608.447 437.594 608.62 437.774 608.789C437.921 608.964 438.087 609.137 438.267 609.306C438.414 609.482 438.58 609.652 438.76 609.821C438.906 609.999 439.071 610.17 439.253 610.338C439.399 610.516 439.564 610.687 439.746 610.854C439.892 611.031 440.058 611.204 440.238 611.373C440.385 611.548 440.551 611.721 440.731 611.89C440.878 612.065 441.044 612.236 441.224 612.405C441.37 612.583 441.535 612.752 441.717 612.922C441.863 613.1 442.028 613.271 442.21 613.438C442.356 613.617 442.521 613.788 442.703 613.957C442.849 614.132 443.015 614.305 443.195 614.474C443.342 614.648 443.508 614.821 443.688 614.991C443.833 615.167 443.999 615.336 444.181 615.507C444.326 615.684 444.492 615.855 444.674 616.022C444.82 616.201 444.985 616.372 445.167 616.539C445.313 616.717 445.478 616.888 445.658 617.058C445.806 617.232 445.971 617.405 446.152 617.574C446.299 617.751 446.465 617.922 446.645 618.091C446.79 618.268 446.956 618.439 447.138 618.608C447.283 618.785 447.449 618.956 447.631 619.123C447.777 619.301 447.942 619.472 448.122 619.642C448.27 619.818 448.435 619.989 448.615 620.158C448.763 620.333 448.928 620.506 449.109 620.675C449.254 620.852 449.42 621.023 449.602 621.192C449.747 621.368 449.913 621.541 450.095 621.709C450.24 621.885 450.406 622.058 450.588 622.225C450.733 622.402 450.899 622.573 451.079 622.742C451.227 622.919 451.392 623.09 451.572 623.259C451.72 623.437 451.885 623.607 452.065 623.776C452.211 623.952 452.377 624.123 452.559 624.293C452.704 624.469 452.87 624.642 453.052 624.809C453.197 624.986 453.363 625.159 453.543 625.328C453.69 625.503 453.856 625.674 454.036 625.843C454.184 626.019 454.349 626.19 454.529 626.36C454.675 626.538 454.842 626.707 455.022 626.876C455.168 627.053 455.334 627.226 455.516 627.393C455.661 627.57 455.827 627.743 456.009 627.912C456.154 628.087 456.32 628.259 456.5 628.427C456.647 628.603 456.813 628.776 456.993 628.945C457.139 629.122 457.306 629.291 457.486 629.46C457.632 629.639 457.797 629.808 457.979 629.977C458.125 630.155 458.29 630.327 458.472 630.494C458.618 630.67 458.784 630.843 458.964 631.013C459.111 631.187 459.277 631.36 459.457 631.529C459.602 631.704 459.77 631.877 459.95 632.044C460.096 632.223 460.261 632.392 460.443 632.561C460.589 632.739 460.754 632.91 460.936 633.078C461.082 633.256 461.247 633.427 461.429 633.596C461.575 633.773 461.741 633.944 461.921 634.113C462.068 634.288 462.234 634.461 462.414 634.63C462.561 634.807 462.727 634.978 462.907 635.147C463.053 635.323 463.218 635.494 463.4 635.662C463.546 635.84 463.711 636.011 463.893 636.179C464.039 636.357 464.204 636.528 464.384 636.697C464.532 636.872 464.697 637.045 464.878 637.214C465.025 637.389 465.191 637.561 465.371 637.731C465.516 637.907 465.684 638.078 465.864 638.247C466.009 638.424 466.175 638.595 466.357 638.762C466.503 638.941 466.668 639.112 466.85 639.281C466.996 639.458 467.161 639.629 467.341 639.798C467.489 639.973 467.654 640.145 467.835 640.315C467.98 640.491 468.148 640.662 468.328 640.831C468.473 641.008 468.639 641.181 468.821 641.348C468.966 641.525 469.132 641.698 469.312 641.863C469.46 642.041 469.625 642.212 469.805 642.382C469.953 642.558 470.118 642.729 470.298 642.899C470.444 643.075 470.609 643.246 470.791 643.415C470.939 643.592 471.104 643.763 471.283 643.932C471.43 644.109 471.596 644.281 471.778 644.449C471.923 644.625 472.089 644.798 472.269 644.967C472.416 645.142 472.58 645.313 472.762 645.482C472.91 645.659 473.075 645.83 473.255 645.999C473.401 646.178 473.566 646.347 473.748 646.516C473.894 646.692 474.06 646.865 474.24 647.033C474.387 647.209 474.553 647.382 474.733 647.55C474.88 647.726 475.046 647.899 475.226 648.068C475.372 648.243 475.537 648.414 475.719 648.583C475.866 648.761 476.032 648.931 476.21 649.1C476.358 649.278 476.523 649.447 476.705 649.617C476.851 649.795 477.016 649.966 477.197 650.133C477.344 650.31 477.51 650.483 477.69 650.652C477.837 650.827 478.003 651 478.183 651.167C478.328 651.344 478.494 651.516 478.676 651.686C478.823 651.862 478.989 652.031 479.167 652.201C479.315 652.379 479.48 652.55 479.662 652.717C479.808 652.896 479.973 653.067 480.154 653.234C480.299 653.411 480.465 653.583 480.647 653.753C480.794 653.927 480.96 654.1 481.14 654.27C481.285 654.446 481.451 654.617 481.633 654.784C481.779 654.963 481.944 655.132 482.124 655.301C482.272 655.48 482.437 655.651 482.617 655.818C482.765 655.996 482.93 656.167 483.111 656.337C483.256 656.511 483.422 656.684 483.604 656.853C483.751 657.028 483.917 657.201 484.097 657.37C484.242 657.547 484.408 657.718 484.59 657.885C484.735 658.063 484.901 658.235 485.081 658.402C485.229 658.58 485.394 658.751 485.574 658.921C485.722 659.097 485.887 659.268 486.067 659.437C486.213 659.612 486.379 659.785 486.561 659.954C486.708 660.131 486.874 660.302 487.052 660.471C487.199 660.647 487.365 660.818 487.547 660.988C487.692 661.164 487.858 661.335 488.038 661.503C488.184 661.681 488.349 661.852 488.531 662.021C488.679 662.198 488.844 662.369 489.024 662.538C489.17 662.715 489.336 662.886 489.518 663.055C489.663 663.231 489.829 663.402 490.009 663.572C490.156 663.748 490.322 663.921 490.504 664.088C490.649 664.265 490.815 664.438 490.995 664.605C491.141 664.782 491.306 664.953 491.488 665.122C491.636 665.298 491.801 665.469 491.981 665.639C492.127 665.817 492.292 665.986 492.474 666.155C492.62 666.332 492.786 666.503 492.966 666.672C493.113 666.849 493.279 667.022 493.461 667.189C493.606 667.366 493.772 667.538 493.952 667.708C494.098 667.882 494.263 668.053 494.445 668.223C494.593 668.399 494.758 668.57 494.938 668.739C495.084 668.918 495.249 669.087 495.431 669.256C495.577 669.433 495.743 669.606 495.923 669.773C496.07 669.949 496.234 670.122 496.416 670.292C496.563 670.466 496.729 670.639 496.909 670.808C497.055 670.983 497.22 671.154 497.402 671.323C497.548 671.502 497.713 671.671 497.893 671.84C498.041 672.018 498.206 672.189 498.388 672.357C498.534 672.533 498.699 672.706 498.88 672.874C499.025 673.05 499.191 673.223 499.373 673.392C499.52 673.567 499.686 673.74 499.866 673.907C500.011 674.086 500.177 674.255 500.359 674.424C500.505 674.602 500.67 674.771 500.85 674.941C500.998 675.119 501.163 675.29 501.345 675.458C501.491 675.634 501.656 675.807 501.837 675.976C501.982 676.151 502.148 676.324 502.33 676.493C502.477 676.668 502.643 676.84 502.823 677.01C502.968 677.186 503.134 677.355 503.316 677.525C503.462 677.703 503.627 677.874 503.807 678.041C503.953 678.22 504.12 678.391 504.3 678.558C504.448 678.735 504.613 678.908 504.793 679.077C504.939 679.251 505.105 679.424 505.287 679.594C505.432 679.77 505.6 679.941 505.778 680.11C505.925 680.287 506.091 680.456 506.273 680.625C506.418 680.804 506.584 680.975 506.764 681.142C506.91 681.32 507.075 681.491 507.257 681.661C507.405 681.837 507.57 682.008 507.75 682.177C507.896 682.352 508.062 682.525 508.244 682.694C508.389 682.871 508.555 683.042 508.735 683.211C508.882 683.388 509.048 683.56 509.23 683.728C509.375 683.904 509.541 684.075 509.721 684.245C509.867 684.421 510.032 684.592 510.214 684.761C510.362 684.938 510.527 685.109 510.706 685.278C510.853 685.455 511.018 685.626 511.2 685.795C511.346 685.971 511.512 686.143 511.692 686.312C511.837 686.488 512.005 686.661 512.185 686.829C512.332 687.005 512.498 687.176 512.678 687.347C512.824 687.522 512.989 687.693 513.171 687.862C513.317 688.039 513.484 688.21 513.662 688.379C513.81 688.555 513.975 688.726 514.157 688.896C514.303 689.072 514.469 689.245 514.649 689.412C514.794 689.589 514.962 689.762 515.142 689.931C515.289 690.106 515.455 690.279 515.635 690.448C515.781 690.622 515.946 690.794 516.128 690.963C516.274 691.141 516.439 691.31 516.619 691.48C516.767 691.656 516.932 691.827 517.114 691.996C517.26 692.173 517.426 692.346 517.606 692.513C517.751 692.69 517.917 692.862 518.099 693.032C518.246 693.206 518.412 693.377 518.59 693.547C518.737 693.723 518.903 693.894 519.085 694.065C519.231 694.242 519.396 694.411 519.576 694.58C519.722 694.759 519.889 694.93 520.071 695.097C520.217 695.275 520.382 695.446 520.563 695.616C520.708 695.79 520.874 695.963 521.056 696.132C521.203 696.307 521.369 696.48 521.547 696.649C521.694 696.826 521.86 696.995 522.042 697.164C522.188 697.342 522.353 697.514 522.533 697.681C522.679 697.859 522.844 698.03 523.026 698.198C523.174 698.376 523.339 698.547 523.52 698.716C523.665 698.891 523.831 699.064 524.013 699.233C524.158 699.41 524.324 699.581 524.504 699.75C524.651 699.926 524.817 700.097 524.999 700.265C525.144 700.443 525.31 700.614 525.49 700.782C525.636 700.96 525.801 701.131 525.983 701.3C526.131 701.475 526.296 701.648 526.476 701.817C526.622 701.992 526.788 702.165 526.97 702.334C527.115 702.51 527.281 702.681 527.461 702.851C527.608 703.027 527.774 703.2 527.954 703.367C528.101 703.544 528.267 703.715 528.447 703.882C528.593 704.061 528.758 704.232 528.94 704.401C529.088 704.577 529.253 704.748 529.432 704.918C529.579 705.094 529.745 705.265 529.926 705.434C530.072 705.611 530.238 705.782 530.418 705.951C530.565 706.128 530.731 706.301 530.911 706.468C531.058 706.645 531.224 706.816 531.404 706.985C531.55 707.161 531.715 707.332 531.897 707.502C532.043 707.678 532.208 707.849 532.389 708.018C532.536 708.195 532.701 708.366 532.883 708.535C533.029 708.712 533.195 708.885 533.375 709.052C533.52 709.228 533.686 709.401 533.868 709.569C534.015 709.745 534.181 709.918 534.361 710.087C534.507 710.262 534.672 710.433 534.854 710.602C535 710.781 535.165 710.95 535.345 711.119C535.493 711.297 535.658 711.467 535.839 711.636C535.986 711.812 536.152 711.985 536.332 712.153C536.477 712.329 536.643 712.502 536.825 712.671C536.972 712.846 537.138 713.019 537.316 713.188C537.464 713.363 537.629 713.534 537.811 713.703C537.957 713.881 538.122 714.05 538.302 714.22C538.45 714.398 538.615 714.569 538.796 714.737C538.943 714.915 539.108 715.086 539.287 715.255C539.434 715.43 539.6 715.603 539.782 715.772C539.929 715.947 540.093 716.119 540.273 716.287C540.42 716.465 540.586 716.634 540.768 716.804C540.914 716.982 541.079 717.151 541.259 717.32C541.405 717.499 541.57 717.67 541.752 717.837C541.9 718.016 542.065 718.187 542.244 718.356C542.391 718.53 542.557 718.703 542.739 718.873C542.884 719.047 543.05 719.22 543.23 719.389C543.377 719.566 543.543 719.735 543.723 719.904C543.87 720.083 544.036 720.254 544.216 720.421C544.362 720.599 544.527 720.77 544.709 720.94C544.857 721.116 545.022 721.287 545.201 721.456C545.348 721.631 545.514 721.804 545.696 721.973C545.841 722.15 546.007 722.321 546.187 722.49C546.334 722.667 546.5 722.838 546.68 723.005C546.827 723.183 546.993 723.354 547.173 723.522C547.319 723.7 547.484 723.871 547.666 724.04C547.814 724.217 547.979 724.388 548.158 724.557C548.305 724.732 548.471 724.905 548.651 725.074C548.798 725.25 548.964 725.421 549.144 725.591C549.291 725.767 549.455 725.94 549.637 726.107C549.784 726.284 549.95 726.455 550.128 726.624C550.276 726.801 550.441 726.972 550.623 727.141C550.769 727.318 550.934 727.489 551.115 727.658C551.262 727.834 551.428 728.005 551.608 728.175C551.755 728.351 551.921 728.522 552.101 728.691C552.246 728.868 552.412 729.041 552.594 729.208C552.741 729.385 552.907 729.556 553.085 729.725C553.233 729.901 553.398 730.073 553.58 730.242C553.726 730.418 553.891 730.589 554.071 730.759C554.219 730.937 554.384 731.106 554.565 731.275C554.712 731.452 554.878 731.625 555.058 731.792C555.203 731.969 555.369 732.141 555.551 732.309C555.696 732.485 555.862 732.658 556.042 732.826C556.19 733.002 556.355 733.173 556.535 733.342C556.683 733.521 556.848 733.69 557.028 733.859C557.174 734.038 557.34 734.209 557.522 734.376C557.669 734.552 557.835 734.725 558.013 734.893C558.16 735.069 558.326 735.242 558.508 735.411C558.653 735.586 558.819 735.759 558.999 735.926C559.146 736.105 559.31 736.274 559.492 736.443C559.64 736.621 559.805 736.791 559.985 736.96C560.131 737.138 560.296 737.309 560.478 737.477C560.626 737.653 560.79 737.826 560.97 737.995C561.117 738.17 561.283 738.343 561.465 738.512C561.61 738.687 561.776 738.86 561.956 739.027C562.103 739.205 562.267 739.375 562.449 739.544C563.475 740.781 565.324 741.853 567.99 742.421L609.775 742.291C635.508 742.211 661.134 746.662 685.046 756.181C700.885 762.484 711.892 771.202 721.514 780.719L721.942 781.168C721.96 781.187 721.976 781.203 721.992 781.219L722.438 781.687C722.453 781.703 722.467 781.721 722.484 781.738L722.928 782.202L722.977 782.255L723.425 782.722C723.439 782.737 723.454 782.753 723.47 782.771L723.914 783.235L723.963 783.288L724.411 783.754C724.424 783.772 724.44 783.789 724.454 783.803L724.898 784.269C724.915 784.287 724.933 784.304 724.949 784.322L725.395 784.788C725.41 784.806 725.424 784.822 725.441 784.839L725.888 785.306C725.903 785.321 725.919 785.337 725.934 785.355L726.378 785.819C726.392 785.838 726.409 785.854 726.427 785.872L726.873 786.34C726.889 786.356 726.904 786.373 726.92 786.389L727.364 786.853C727.379 786.871 727.395 786.889 727.411 786.904L727.859 787.372C727.874 787.39 727.89 787.406 727.905 787.422L728.349 787.888C728.363 787.903 728.381 787.921 728.398 787.939L728.843 788.407C728.86 788.421 728.876 788.44 728.891 788.456L729.335 788.92L729.382 788.973L729.83 789.44C729.846 789.457 729.861 789.473 729.877 789.49L730.321 789.954C730.336 789.972 730.352 789.99 730.368 790.006L730.816 790.472C730.831 790.49 730.847 790.507 730.861 790.523L731.309 790.991C731.324 791.007 731.338 791.024 731.355 791.04L747.628 808.048C752.603 813.218 761.83 813.423 766.623 812.668C769.618 812.197 774.964 809.748 776.058 805.914L812.744 680.627C813.119 679.301 812.56 678.045 811.421 677.004Z" fill="#0046FF"/>
</g>
<path d="M531.363 385.52L494.68 510.807C493.583 514.641 488.239 517.09 485.242 517.56C480.451 518.317 471.221 518.111 466.248 512.94L449.973 495.933C437.698 482.555 425.102 469.605 403.667 461.074C379.755 451.556 354.129 447.103 328.393 447.185L286.609 447.314C278.631 445.611 277.794 439.44 285.299 437.659L518.134 379.565C524.863 377.965 532.522 381.415 531.363 385.52Z" fill="white"/>
<defs>
<filter id="filter0_d_341_9" x="477.005" y="311.418" width="149.742" height="117.502" filterUnits="userSpaceOnUse" color-interpolation-filters="sRGB">
<feFlood flood-opacity="0" result="BackgroundImageFix"/>
<feColorMatrix in="SourceAlpha" type="matrix" values="0 0 0 0 0 0 0 0 0 0 0 0 0 0 0 0 0 0 127 0" result="hardAlpha"/>
<feOffset dy="10"/>
<feGaussianBlur stdDeviation="25"/>
<feComposite in2="hardAlpha" operator="out"/>
<feColorMatrix type="matrix" values="0 0 0 0 0 0 0 0 0 0 0 0 0 0 0 0 0 0 0.25 0"/>
<feBlend mode="normal" in2="BackgroundImageFix" result="effect1_dropShadow_341_9"/>
<feBlend mode="normal" in="SourceGraphic" in2="effect1_dropShadow_341_9" result="shape"/>
</filter>
<filter id="filter1_d_341_9" x="491.208" y="270.418" width="140.585" height="114.279" filterUnits="userSpaceOnUse" color-interpolation-filters="sRGB">
<feFlood flood-opacity="0" result="BackgroundImageFix"/>
<feColorMatrix in="SourceAlpha" type="matrix" values="0 0 0 0 0 0 0 0 0 0 0 0 0 0 0 0 0 0 127 0" result="hardAlpha"/>
<feOffset dy="10"/>
<feGaussianBlur stdDeviation="25"/>
<feComposite in2="hardAlpha" operator="out"/>
<feColorMatrix type="matrix" values="0 0 0 0 0 0 0 0 0 0 0 0 0 0 0 0 0 0 0.25 0"/>
<feBlend mode="normal" in2="BackgroundImageFix" result="effect1_dropShadow_341_9"/>
<feBlend mode="normal" in="SourceGraphic" in2="effect1_dropShadow_341_9" result="shape"/>
</filter>
<filter id="filter2_d_341_9" x="465.938" y="235.869" width="132.635" height="111.482" filterUnits="userSpaceOnUse" color-interpolation-filters="sRGB">
<feFlood flood-opacity="0" result="BackgroundImageFix"/>
<feColorMatrix in="SourceAlpha" type="matrix" values="0 0 0 0 0 0 0 0 0 0 0 0 0 0 0 0 0 0 127 0" result="hardAlpha"/>
<feOffset dy="10"/>
<feGaussianBlur stdDeviation="25"/>
<feComposite in2="hardAlpha" operator="out"/>
<feColorMatrix type="matrix" values="0 0 0 0 0 0 0 0 0 0 0 0 0 0 0 0 0 0 0.25 0"/>
<feBlend mode="normal" in2="BackgroundImageFix" result="effect1_dropShadow_341_9"/>
<feBlend mode="normal" in="SourceGraphic" in2="effect1_dropShadow_341_9" result="shape"/>
</filter>
<filter id="filter3_d_341_9" x="305.438" y="565.127" width="146.909" height="116.504" filterUnits="userSpaceOnUse" color-interpolation-filters="sRGB">
<feFlood flood-opacity="0" result="BackgroundImageFix"/>
<feColorMatrix in="SourceAlpha" type="matrix" values="0 0 0 0 0 0 0 0 0 0 0 0 0 0 0 0 0 0 127 0" result="hardAlpha"/>
<feOffset dy="10"/>
<feGaussianBlur stdDeviation="25"/>
<feComposite in2="hardAlpha" operator="out"/>
<feColorMatrix type="matrix" values="0 0 0 0 0 0 0 0 0 0 0 0 0 0 0 0 0 0 0.25 0"/>
<feBlend mode="normal" in2="BackgroundImageFix" result="effect1_dropShadow_341_9"/>
<feBlend mode="normal" in="SourceGraphic" in2="effect1_dropShadow_341_9" result="shape"/>
</filter>
<filter id="filter4_d_341_9" x="295.324" y="504.088" width="146.909" height="116.504" filterUnits="userSpaceOnUse" color-interpolation-filters="sRGB">
<feFlood flood-opacity="0" result="BackgroundImageFix"/>
<feColorMatrix in="SourceAlpha" type="matrix" values="0 0 0 0 0 0 0 0 0 0 0 0 0 0 0 0 0 0 127 0" result="hardAlpha"/>
<feOffset dy="10"/>
<feGaussianBlur stdDeviation="25"/>
<feComposite in2="hardAlpha" operator="out"/>
<feColorMatrix type="matrix" values="0 0 0 0 0 0 0 0 0 0 0 0 0 0 0 0 0 0 0.25 0"/>
<feBlend mode="normal" in2="BackgroundImageFix" result="effect1_dropShadow_341_9"/>
<feBlend mode="normal" in="SourceGraphic" in2="effect1_dropShadow_341_9" result="shape"/>
</filter>
<filter id="filter5_d_341_9" x="239.135" y="358.166" width="632.725" height="533.826" filterUnits="userSpaceOnUse" color-interpolation-filters="sRGB">
<feFlood flood-opacity="0" result="BackgroundImageFix"/>
<feColorMatrix in="SourceAlpha" type="matrix" values="0 0 0 0 0 0 0 0 0 0 0 0 0 0 0 0 0 0 127 0" result="hardAlpha"/>
<feOffset dx="9" dy="29"/>
<feGaussianBlur stdDeviation="25"/>
<feComposite in2="hardAlpha" operator="out"/>
<feColorMatrix type="matrix" values="0 0 0 0 0 0 0 0 0 0 0 0 0 0 0 0 0 0 0.25 0"/>
<feBlend mode="normal" in2="BackgroundImageFix" result="effect1_dropShadow_341_9"/>
<feBlend mode="normal" in="SourceGraphic" in2="effect1_dropShadow_341_9" result="shape"/>
</filter>
</defs>
</svg>
