<?xml version="1.0" encoding="iso-8859-1"?>
<!-- Generator: Adobe Illustrator 18.1.1, SVG Export Plug-In . SVG Version: 6.00 Build 0)  -->
<svg version="1.1" id="Capa_1" xmlns="http://www.w3.org/2000/svg" xmlns:xlink="http://www.w3.org/1999/xlink" x="0px" y="0px"
	 viewBox="0 0 43.493 43.493" style="enable-background:new 0 0 43.493 43.493;" xml:space="preserve">
<g>
	<path d="M34.457,9.182l-1.247,1.246l1.846,1.847v3.574h3.519V35.48c0,2.375-1.513,2.649-2.65,2.649
		c-2.12,0-2.576-2.083-2.646-2.501V20.865h-6.318V3.221C26.961,1.441,25.52,0,23.74,0H6.379c-1.78,0-3.223,1.439-3.223,3.221V40.27
		c0,1.779,1.443,3.223,3.223,3.223H23.74c1.78,0,3.221-1.442,3.221-3.223V22.626h4.554v13.067l0.009,0.115
		c0.188,1.412,1.35,4.081,4.401,4.081c2.764,0,4.413-1.648,4.413-4.412V15.06L34.457,9.182z M35.937,14.965v-1.81l1.81,1.81H35.937z
		 M10.432,24.125c0,0,2.955,0.317,3.852,1.218c0.898,0.896,1.037,2.216,0.308,2.942c-0.728,0.729-2.044,0.592-2.943-0.309
		C10.749,27.079,10.432,24.125,10.432,24.125z M13.793,38.244c-0.25-0.535-0.438-1.052-0.607-1.608
		c-0.226-0.77-0.382-1.564-0.426-2.377c-0.106-1.618,0.328-3.345,1.333-4.616c0.234-0.313,0.54-0.626,0.784-0.865
		c0.229-0.232,0.455-0.502,0.651-0.774c0.391-0.552,0.68-1.177,0.794-1.851c0.241-1.353-0.274-2.829-1.205-3.945
		c1.068,0.979,1.852,2.42,1.797,4.002c-0.023,0.783-0.26,1.561-0.623,2.255c-0.184,0.352-0.389,0.675-0.631,0.997
		c-0.239,0.309-0.414,0.549-0.58,0.846c-0.665,1.146-0.801,2.475-0.546,3.745c0.123,0.642,0.335,1.268,0.607,1.87
		c0.266,0.587,0.624,1.212,0.969,1.666l0.539,0.543c0.033,0.042,0.047,0.077,0.066,0.114L13.793,38.244L13.793,38.244z
		 M18.819,33.684c-0.898,0.897-2.216,1.036-2.944,0.308c-0.728-0.726-0.589-2.045,0.309-2.943c0.898-0.898,3.853-1.217,3.853-1.217
		S19.715,32.785,18.819,33.684z M23.434,20.276H6.978V3.82h16.457L23.434,20.276L23.434,20.276z"/>
	<g>
	</g>
	<g>
	</g>
	<g>
	</g>
	<g>
	</g>
	<g>
	</g>
	<g>
	</g>
	<g>
	</g>
	<g>
	</g>
	<g>
	</g>
	<g>
	</g>
	<g>
	</g>
	<g>
	</g>
	<g>
	</g>
	<g>
	</g>
	<g>
	</g>
</g>
<g>
</g>
<g>
</g>
<g>
</g>
<g>
</g>
<g>
</g>
<g>
</g>
<g>
</g>
<g>
</g>
<g>
</g>
<g>
</g>
<g>
</g>
<g>
</g>
<g>
</g>
<g>
</g>
<g>
</g>
</svg>
