<svg class="svg-icon" style="width: 1em; height: 1em;vertical-align: middle;fill: currentColor;overflow: hidden;" viewBox="0 0 1024 1024" version="1.1" xmlns="http://www.w3.org/2000/svg"><path d="M184.32 307.301306C184.32 284.623773 202.704655 266.24 225.315703 266.24L798.684297 266.24C821.3256 266.24 839.68 284.611097 839.68 307.301306L839.68 716.698694C839.68 739.376227 821.295344 757.76 798.684297 757.76L225.315703 757.76C202.674402 757.76 184.32 739.388903 184.32 716.698694L184.32 307.301306 184.32 307.301306ZM204.8 307.301306 204.8 716.698694C204.8 728.080082 213.987179 737.28 225.315703 737.28L798.684297 737.28C809.990008 737.28 819.2 728.059966 819.2 716.698694L819.2 307.301306C819.2 295.919918 810.012824 286.72 798.684297 286.72L225.315703 286.72C214.009995 286.72 204.8 295.940034 204.8 307.301306L204.8 307.301306ZM341.304394 537.111386 361.557233 511.654956 387.28798 579.247834 469.673622 413.775585 510.103422 667.682042 608.561523 537.111386 687.723566 537.111386 687.723566 516.631386 598.108263 516.631386 522.731603 616.750876 479.824232 347.28483 389.743074 528.131408 367.896971 470.743217 331.660156 516.631386 254.957367 516.631386 254.957367 537.111386 341.304394 537.111386 341.304394 537.111386ZM732.16 578.56C760.436979 578.56 783.36 555.636979 783.36 527.36 783.36 499.083021 760.436979 476.16 732.16 476.16 703.883021 476.16 680.96 499.083021 680.96 527.36 680.96 555.636979 703.883021 578.56 732.16 578.56L732.16 578.56 732.16 578.56ZM732.16 558.08C715.193813 558.08 701.44 544.326187 701.44 527.36 701.44 510.393813 715.193813 496.64 732.16 496.64 749.126187 496.64 762.88 510.393813 762.88 527.36 762.88 544.326187 749.126187 558.08 732.16 558.08L732.16 558.08 732.16 558.08Z"  /></svg>