<svg class="svg-icon" style="width: 1em; height: 1em;vertical-align: middle;fill: currentColor;overflow: hidden;" viewBox="0 0 1024 1024" version="1.1" xmlns="http://www.w3.org/2000/svg"><path d="M184.1 800c-9.5 0-18.9-4.2-25.2-12.3-30.1-38.5-53.6-81.4-69.7-127.4C72.5 612.8 64 562.9 64 512c0-60.5 11.8-119.1 35.2-174.4 22.6-53.4 54.9-101.3 96-142.4 41.1-41.1 89-73.4 142.4-96C392.9 75.8 451.5 64 512 64c12.3 0 23.5 7.1 28.8 18.1 5.3 11.1 3.8 24.2-3.9 33.9L409 276c-11 13.8-31.2 16-45 5-13.8-11-16-31.2-5-45l81.1-101.3c-75.2 14.2-144.3 50.5-199.6 105.8C167.9 313 128 409.4 128 512c0 43.6 7.2 86.4 21.5 127.1 13.8 39.4 33.9 76.1 59.7 109.1 10.9 13.9 8.4 34-5.5 44.9C197.9 797.8 191 800 184.1 800z"  /><path d="M512 960c-12.3 0-23.5-7.1-28.8-18.1-5.3-11.1-3.8-24.2 3.9-33.9l128-160c11-13.8 31.2-16 45-5 13.8 11 16 31.2 5 45l-81.1 101.3c75.2-14.2 144.3-50.5 199.6-105.8C856.1 711 896 614.6 896 512c0-43.6-7.2-86.4-21.5-127.1-13.8-39.4-33.9-76.1-59.7-109.1-10.9-13.9-8.4-34 5.5-44.9 13.9-10.9 34-8.4 44.9 5.5 30.1 38.5 53.6 81.4 69.7 127.4C951.5 411.2 960 461.2 960 512c0 60.5-11.8 119.1-35.2 174.4-22.6 53.4-54.9 101.3-96 142.4-41.1 41.1-89 73.4-142.4 96C631.1 948.2 572.5 960 512 960z"  /><path d="M350.6 769.4c-8.2 0-16.4-3.1-22.6-9.4l-64-64c-12.5-12.5-12.5-32.8 0-45.3l150.6-150.6 0-50.7c0-58.8 19.2-105.6 57.2-139.3 75.5-67 197.5-53.1 202.6-52.5 12.2 1.5 22.4 9.7 26.4 21.3 4 11.6 1 24.4-7.6 33.1l-72 72 18.7 18.7 72-72c8.7-8.7 21.5-11.6 33.1-7.6 11.6 4 19.9 14.3 21.3 26.4 0.6 5.2 14.4 127.1-52.5 202.6-33.6 37.9-80.5 57.2-139.3 57.2l-50.7 0L373.3 760C367 766.2 358.8 769.4 350.6 769.4zM331.9 673.4l18.7 18.7L488 554.7c6-6 14.1-9.4 22.6-9.4l64 0c40.2 0 70.1-11.7 91.4-35.6 19.2-21.6 28.7-50.7 33.4-75.9l-36.8 36.8c-12.5 12.5-32.8 12.5-45.3 0l-64-64c-12.5-12.5-12.5-32.8 0-45.3l36.9-36.9c-26.5 4.9-54.8 14.6-76.1 33.6-23.9 21.3-35.5 51.1-35.5 91.2l0 64c0 8.5-3.4 16.6-9.4 22.6L331.9 673.4z"  /></svg>