<?xml version="1.0" encoding="iso-8859-1"?>
<!-- Generator: Adobe Illustrator 19.0.0, SVG Export Plug-In . SVG Version: 6.00 Build 0)  -->
<svg version="1.1" id="Layer_1" xmlns="http://www.w3.org/2000/svg" xmlns:xlink="http://www.w3.org/1999/xlink" x="0px" y="0px"
	 viewBox="0 0 501.692 501.692" style="enable-background:new 0 0 501.692 501.692;" xml:space="preserve">
<g transform="translate(1 1)">
	<g>
		<g>
			<path d="M470.859,191.924l-60.587-17.067c-49.115-11.675-99.94-17.836-151.04-18.495v-0.279c0-5.12-3.413-8.533-8.533-8.533
				s-8.533,3.413-8.533,8.533v0.27c-51.572,0.572-103.262,6.731-153.6,18.504l-59.733,16.213
				c-20.48,5.973-33.28,26.453-29.013,46.933l46.08,244.053c0.853,2.56,1.707,5.12,4.267,5.973s5.12,0.853,7.68,0
				c124.587-44.373,261.973-44.373,386.56,0c0.853,0.853,1.707,0.853,2.56,0.853c1.707,0,2.56,0,4.267-0.853
				c2.56-1.707,3.413-3.413,4.267-5.973l44.373-243.2C504.139,218.378,491.339,197.897,470.859,191.924z M483.659,233.737
				l-43.52,234.667c-61.44-20.48-125.44-30.72-189.44-30.72s-128,10.24-190.293,30.72l-43.52-234.667
				c-1.707-11.947,5.12-23.893,17.067-27.307l59.733-16.213c48.771-11.286,98.684-17.234,148.48-17.858v34.925
				c0,5.12,3.413,8.533,8.533,8.533s8.533-3.413,8.533-8.533v-34.928c49.894,0.596,99.526,6.543,147.627,17.861l59.733,16.213
				C478.539,209.844,486.219,221.791,483.659,233.737z"/>
			<path d="M250.699,284.084c-5.12,0-8.533,3.413-8.533,8.533v17.067c0,5.12,3.413,8.533,8.533,8.533s8.533-3.413,8.533-8.533
				v-17.067C259.233,287.497,255.819,284.084,250.699,284.084z"/>
			<path d="M250.699,335.284c-5.12,0-8.533,3.413-8.533,8.533v17.067c0,5.12,3.413,8.533,8.533,8.533s8.533-3.413,8.533-8.533
				v-17.067C259.233,338.698,255.819,335.284,250.699,335.284z"/>
			<path d="M250.699,232.884c-5.12,0-8.533,3.413-8.533,8.533v17.067c0,5.12,3.413,8.533,8.533,8.533s8.533-3.413,8.533-8.533
				v-17.067C259.233,236.297,255.819,232.884,250.699,232.884z"/>
			<path d="M441.846,90.377c0.853,3.413,4.267,5.973,7.68,5.973c0.853,0,2.56,0,2.56-0.853c4.267-1.707,6.827-6.827,5.12-11.093
				c-5.973-17.92-17.067-33.28-30.72-46.08c-3.413-3.413-8.533-2.56-11.947,0.853c-3.413,3.413-2.56,8.533,0.853,11.947
				C427.339,62.217,436.726,75.017,441.846,90.377z"/>
			<path d="M345.419,28.084c13.653-0.853,26.453,0.853,39.253,5.12c0.853,0.853,1.707,0.853,2.56,0.853
				c3.413,0,6.827-2.56,7.68-5.973c1.707-4.267-0.853-9.387-5.12-11.093c-14.507-5.12-30.72-6.827-46.08-5.973
				c-4.267,0.853-7.68,4.267-7.68,9.387C336.886,24.671,341.153,28.084,345.419,28.084z"/>
			<path d="M277.153,62.217c1.707,0,4.267-0.853,5.973-2.56c9.387-10.24,20.48-18.773,32.427-23.893
				c4.267-1.707,5.973-6.827,4.267-11.093c-1.707-4.267-6.827-5.973-11.093-4.267c-14.507,5.973-28.16,15.36-38.4,27.307
				c-2.56,3.413-2.56,8.533,0.853,11.947C272.886,61.364,275.446,62.217,277.153,62.217z"/>
			<path d="M233.633,82.697c5.973,12.8,8.533,25.6,8.533,39.253c0,5.12,3.413,8.533,8.533,8.533s8.533-3.413,8.533-8.533
				c0-13.653,2.56-27.307,8.533-39.253c1.707-4.267,0-9.387-4.267-11.093c-4.267-1.707-9.387,0-11.093,4.267
				c-0.598,1.271-1.161,2.552-1.707,3.836c-0.546-1.285-1.108-2.565-1.707-3.836c-1.707-4.267-6.827-5.973-11.093-4.267
				S231.926,78.431,233.633,82.697z"/>
			<path d="M48.459,95.497c0.853,0.853,2.56,0.853,3.413,0.853c3.413,0,6.827-2.56,7.68-5.973c5.12-14.507,14.507-28.16,25.6-38.4
				c3.413-3.413,4.267-8.533,0.853-11.947s-8.533-4.267-11.947-0.853c-13.653,11.947-24.747,28.16-30.72,46.08
				C41.633,89.524,44.193,94.644,48.459,95.497z"/>
			<path d="M114.166,34.057c0.853,0,1.707,0,2.56-0.853c12.8-4.267,26.453-5.973,39.253-5.12c5.12,0.853,9.387-3.413,9.387-7.68
				c0.853-5.12-2.56-9.387-7.68-9.387c-15.36-0.853-31.573,0.853-46.08,5.973c-4.267,1.707-6.827,6.827-5.12,11.093
				C107.339,31.497,110.753,34.057,114.166,34.057z"/>
			<path d="M185.846,35.764c11.947,5.973,23.893,13.653,32.427,23.893c1.707,1.707,3.413,2.56,5.973,2.56s4.267-0.853,5.973-2.56
				c3.413-3.413,4.267-8.533,0.853-11.947c-11.093-11.093-23.893-21.333-38.4-27.307c-4.267-1.707-9.387,0-11.093,4.267
				S181.579,34.057,185.846,35.764z"/>
		</g>
	</g>
</g>
<g>
</g>
<g>
</g>
<g>
</g>
<g>
</g>
<g>
</g>
<g>
</g>
<g>
</g>
<g>
</g>
<g>
</g>
<g>
</g>
<g>
</g>
<g>
</g>
<g>
</g>
<g>
</g>
<g>
</g>
</svg>
